<?xml version="1.0" encoding="UTF-8" standalone="no"?><svg xmlns="http://www.w3.org/2000/svg" xmlns:xlink="http://www.w3.org/1999/xlink" clip-rule="evenodd" stroke-miterlimit="10" viewBox="0 0 1024 768"><desc>SVG generated by Keynote</desc><defs></defs><g transform="matrix(1.00, 0.00, -0.00, -1.00, 0.0, 768.0)"><path d="M 0.0 768.0 L 1024.0 768.0 L 1024.0 0.0 L 0.0 0.0 Z M 0.0 768.0 " fill="#212121"></path><text xml:space="preserve" font-family="Raleway-ExtraLight,Raleway" font-size="80.0" fill="#FEFFFF" transform="matrix(1.00, 0.00, -0.00, -1.00, 131.4, 634.7)">C</text><text xml:space="preserve" font-family="Raleway-ExtraLight,Raleway" font-size="64.0" fill="#FEFFFF" transform="matrix(1.00, 0.00, -0.00, -1.00, 187.2, 634.7)">U</text><text xml:space="preserve" font-family="Raleway-ExtraLight,Raleway" font-size="64.0" fill="#FEFFFF" transform="matrix(1.00, 0.00, -0.00, -1.00, 235.8, 634.7)">S</text><text xml:space="preserve" font-family="Raleway-ExtraLight,Raleway" font-size="64.0" fill="#FEFFFF" transform="matrix(1.00, 0.00, -0.00, -1.00, 274.2, 634.7)">T</text><text xml:space="preserve" font-family="Raleway-ExtraLight,Raleway" font-size="64.0" fill="#FEFFFF" transform="matrix(1.00, 0.00, -0.00, -1.00, 310.8, 634.7)">O</text><text xml:space="preserve" font-family="Raleway-ExtraLight,Raleway" font-size="64.0" fill="#FEFFFF" transform="matrix(1.00, 0.00, -0.00, -1.00, 359.7, 634.7)">M</text><text xml:space="preserve" font-family="Raleway-ExtraLight,Raleway" font-size="80.0" fill="#FEFFFF" transform="matrix(1.00, 0.00, -0.00, -1.00, 416.4, 634.7)"> </text><text xml:space="preserve" font-family="Raleway-ExtraLight,Raleway" font-size="64.0" fill="#FEFFFF" transform="matrix(1.00, 0.00, -0.00, -1.00, 437.6, 634.7)">C</text><text xml:space="preserve" font-family="Raleway-ExtraLight,Raleway" font-size="64.0" fill="#FEFFFF" transform="matrix(1.00, 0.00, -0.00, -1.00, 481.7, 634.7)">O</text><text xml:space="preserve" font-family="Raleway-ExtraLight,Raleway" font-size="64.0" fill="#FEFFFF" transform="matrix(1.00, 0.00, -0.00, -1.00, 530.6, 634.7)">M</text><text xml:space="preserve" font-family="Raleway-ExtraLight,Raleway" font-size="64.0" fill="#FEFFFF" transform="matrix(1.00, 0.00, -0.00, -1.00, 587.3, 634.7)">P</text><text xml:space="preserve" font-family="Raleway-ExtraLight,Raleway" font-size="64.0" fill="#FEFFFF" transform="matrix(1.00, 0.00, -0.00, -1.00, 627.1, 634.7)">O</text><text xml:space="preserve" font-family="Raleway-ExtraLight,Raleway" font-size="64.0" fill="#FEFFFF" transform="matrix(1.00, 0.00, -0.00, -1.00, 676.0, 634.7)">N</text><text xml:space="preserve" font-family="Raleway-ExtraLight,Raleway" font-size="64.0" fill="#FEFFFF" transform="matrix(1.00, 0.00, -0.00, -1.00, 725.8, 634.7)">E</text><text xml:space="preserve" font-family="Raleway-ExtraLight,Raleway" font-size="64.0" fill="#FEFFFF" transform="matrix(1.00, 0.00, -0.00, -1.00, 765.2, 634.7)">N</text><text xml:space="preserve" font-family="Raleway-ExtraLight,Raleway" font-size="64.0" fill="#FEFFFF" transform="matrix(1.00, 0.00, -0.00, -1.00, 815.0, 634.7)">T</text><text xml:space="preserve" font-family="Raleway-ExtraLight,Raleway" font-size="64.0" fill="#FEFFFF" transform="matrix(1.00, 0.00, -0.00, -1.00, 853.5, 634.7)">S</text><text xml:space="preserve" font-family="Inconsolata,Inconsolata" font-size="24.0" fill="#2C9DDA" transform="matrix(1.00, 0.00, -0.00, -1.00, 79.0, 373.4)"> </text><text xml:space="preserve" font-family="Inconsolata,Inconsolata" font-size="24.0" fill="#2C9DDA" transform="matrix(1.00, 0.00, -0.00, -1.00, 91.0, 373.4)"> </text><text xml:space="preserve" font-family="Inconsolata,Inconsolata" font-size="24.0" fill="#2C9DDA" transform="matrix(1.00, 0.00, -0.00, -1.00, 103.0, 373.4)"> </text><text xml:space="preserve" font-family="Inconsolata,Inconsolata" font-size="24.0" fill="#2C9DDA" transform="matrix(1.00, 0.00, -0.00, -1.00, 115.0, 373.4)"> </text><text xml:space="preserve" font-family="Inconsolata,Inconsolata" font-size="24.0" fill="#2C9DDA" transform="matrix(1.00, 0.00, -0.00, -1.00, 127.0, 373.4)">1</text><text xml:space="preserve" font-family="Inconsolata,Inconsolata" font-size="24.0" fill="#2C9DDA" transform="matrix(1.00, 0.00, -0.00, -1.00, 139.0, 373.4)"> </text><text xml:space="preserve" font-family="Inconsolata,Inconsolata" font-size="24.0" fill="#D6601A" transform="matrix(1.00, 0.00, -0.00, -1.00, 151.0, 373.4)">v</text><text xml:space="preserve" font-family="Inconsolata,Inconsolata" font-size="24.0" fill="#D6601A" transform="matrix(1.00, 0.00, -0.00, -1.00, 163.0, 373.4)">a</text><text xml:space="preserve" font-family="Inconsolata,Inconsolata" font-size="24.0" fill="#D6601A" transform="matrix(1.00, 0.00, -0.00, -1.00, 175.0, 373.4)">r</text><text xml:space="preserve" font-family="Inconsolata,Inconsolata" font-size="24.0" fill="#000000" transform="matrix(1.00, 0.00, -0.00, -1.00, 187.0, 373.4)"> </text><text xml:space="preserve" font-family="Inconsolata,Inconsolata" font-size="24.0" fill="#94A4A6" transform="matrix(1.00, 0.00, -0.00, -1.00, 199.0, 373.4)">M</text><text xml:space="preserve" font-family="Inconsolata,Inconsolata" font-size="24.0" fill="#94A4A6" transform="matrix(1.00, 0.00, -0.00, -1.00, 211.0, 373.4)">y</text><text xml:space="preserve" font-family="Inconsolata,Inconsolata" font-size="24.0" fill="#94A4A6" transform="matrix(1.00, 0.00, -0.00, -1.00, 223.0, 373.4)">C</text><text xml:space="preserve" font-family="Inconsolata,Inconsolata" font-size="24.0" fill="#94A4A6" transform="matrix(1.00, 0.00, -0.00, -1.00, 235.0, 373.4)">o</text><text xml:space="preserve" font-family="Inconsolata,Inconsolata" font-size="24.0" fill="#94A4A6" transform="matrix(1.00, 0.00, -0.00, -1.00, 247.0, 373.4)">m</text><text xml:space="preserve" font-family="Inconsolata,Inconsolata" font-size="24.0" fill="#94A4A6" transform="matrix(1.00, 0.00, -0.00, -1.00, 259.0, 373.4)">p</text><text xml:space="preserve" font-family="Inconsolata,Inconsolata" font-size="24.0" fill="#94A4A6" transform="matrix(1.00, 0.00, -0.00, -1.00, 271.0, 373.4)">o</text><text xml:space="preserve" font-family="Inconsolata,Inconsolata" font-size="24.0" fill="#94A4A6" transform="matrix(1.00, 0.00, -0.00, -1.00, 283.0, 373.4)">n</text><text xml:space="preserve" font-family="Inconsolata,Inconsolata" font-size="24.0" fill="#94A4A6" transform="matrix(1.00, 0.00, -0.00, -1.00, 295.0, 373.4)">e</text><text xml:space="preserve" font-family="Inconsolata,Inconsolata" font-size="24.0" fill="#94A4A6" transform="matrix(1.00, 0.00, -0.00, -1.00, 307.0, 373.4)">n</text><text xml:space="preserve" font-family="Inconsolata,Inconsolata" font-size="24.0" fill="#94A4A6" transform="matrix(1.00, 0.00, -0.00, -1.00, 319.0, 373.4)">t</text><text xml:space="preserve" font-family="Inconsolata,Inconsolata" font-size="24.0" fill="#000000" transform="matrix(1.00, 0.00, -0.00, -1.00, 331.0, 373.4)"> </text><text xml:space="preserve" font-family="Inconsolata,Inconsolata" font-size="24.0" fill="#A3B0B0" transform="matrix(1.00, 0.00, -0.00, -1.00, 343.0, 373.4)">=</text><text xml:space="preserve" font-family="Inconsolata,Inconsolata" font-size="24.0" fill="#000000" transform="matrix(1.00, 0.00, -0.00, -1.00, 355.0, 373.4)"> </text><text xml:space="preserve" font-family="Inconsolata,Inconsolata" font-size="24.0" fill="#94A4A6" transform="matrix(1.00, 0.00, -0.00, -1.00, 367.0, 373.4)">R</text><text xml:space="preserve" font-family="Inconsolata,Inconsolata" font-size="24.0" fill="#94A4A6" transform="matrix(1.00, 0.00, -0.00, -1.00, 379.0, 373.4)">e</text><text xml:space="preserve" font-family="Inconsolata,Inconsolata" font-size="24.0" fill="#94A4A6" transform="matrix(1.00, 0.00, -0.00, -1.00, 391.0, 373.4)">a</text><text xml:space="preserve" font-family="Inconsolata,Inconsolata" font-size="24.0" fill="#94A4A6" transform="matrix(1.00, 0.00, -0.00, -1.00, 403.0, 373.4)">c</text><text xml:space="preserve" font-family="Inconsolata,Inconsolata" font-size="24.0" fill="#94A4A6" transform="matrix(1.00, 0.00, -0.00, -1.00, 415.0, 373.4)">t</text><text xml:space="preserve" font-family="Inconsolata,Inconsolata" font-size="24.0" fill="#A3B0B0" transform="matrix(1.00, 0.00, -0.00, -1.00, 427.0, 373.4)">.</text><text xml:space="preserve" font-family="Inconsolata,Inconsolata" font-size="24.0" fill="#A3B0B0" transform="matrix(1.00, 0.00, -0.00, -1.00, 439.0, 373.4)">c</text><text xml:space="preserve" font-family="Inconsolata,Inconsolata" font-size="24.0" fill="#A3B0B0" transform="matrix(1.00, 0.00, -0.00, -1.00, 451.0, 373.4)">r</text><text xml:space="preserve" font-family="Inconsolata,Inconsolata" font-size="24.0" fill="#A3B0B0" transform="matrix(1.00, 0.00, -0.00, -1.00, 463.0, 373.4)">e</text><text xml:space="preserve" font-family="Inconsolata,Inconsolata" font-size="24.0" fill="#A3B0B0" transform="matrix(1.00, 0.00, -0.00, -1.00, 475.0, 373.4)">a</text><text xml:space="preserve" font-family="Inconsolata,Inconsolata" font-size="24.0" fill="#A3B0B0" transform="matrix(1.00, 0.00, -0.00, -1.00, 487.0, 373.4)">t</text><text xml:space="preserve" font-family="Inconsolata,Inconsolata" font-size="24.0" fill="#A3B0B0" transform="matrix(1.00, 0.00, -0.00, -1.00, 499.0, 373.4)">e</text><text xml:space="preserve" font-family="Inconsolata,Inconsolata" font-size="24.0" fill="#A3B0B0" transform="matrix(1.00, 0.00, -0.00, -1.00, 511.0, 373.4)">C</text><text xml:space="preserve" font-family="Inconsolata,Inconsolata" font-size="24.0" fill="#A3B0B0" transform="matrix(1.00, 0.00, -0.00, -1.00, 523.0, 373.4)">l</text><text xml:space="preserve" font-family="Inconsolata,Inconsolata" font-size="24.0" fill="#A3B0B0" transform="matrix(1.00, 0.00, -0.00, -1.00, 535.0, 373.4)">a</text><text xml:space="preserve" font-family="Inconsolata,Inconsolata" font-size="24.0" fill="#A3B0B0" transform="matrix(1.00, 0.00, -0.00, -1.00, 547.0, 373.4)">s</text><text xml:space="preserve" font-family="Inconsolata,Inconsolata" font-size="24.0" fill="#A3B0B0" transform="matrix(1.00, 0.00, -0.00, -1.00, 559.0, 373.4)">s</text><text xml:space="preserve" font-family="Inconsolata,Inconsolata" font-size="24.0" fill="#A3B0B0" transform="matrix(1.00, 0.00, -0.00, -1.00, 571.0, 373.4)">(</text><text xml:space="preserve" font-family="Inconsolata,Inconsolata" font-size="24.0" fill="#A3B0B0" transform="matrix(1.00, 0.00, -0.00, -1.00, 583.0, 373.4)">{</text><text xml:space="preserve" font-family="Inconsolata,Inconsolata" font-size="24.0" fill="#000000" transform="matrix(1.00, 0.00, -0.00, -1.00, 595.0, 373.4)"> </text><text xml:space="preserve" font-family="Inconsolata,Inconsolata" font-size="24.0" fill="#2C9DDA" transform="matrix(1.00, 0.00, -0.00, -1.00, 79.0, 347.4)"> </text><text xml:space="preserve" font-family="Inconsolata,Inconsolata" font-size="24.0" fill="#2C9DDA" transform="matrix(1.00, 0.00, -0.00, -1.00, 91.0, 347.4)"> </text><text xml:space="preserve" font-family="Inconsolata,Inconsolata" font-size="24.0" fill="#2C9DDA" transform="matrix(1.00, 0.00, -0.00, -1.00, 103.0, 347.4)"> </text><text xml:space="preserve" font-family="Inconsolata,Inconsolata" font-size="24.0" fill="#2C9DDA" transform="matrix(1.00, 0.00, -0.00, -1.00, 115.0, 347.4)"> </text><text xml:space="preserve" font-family="Inconsolata,Inconsolata" font-size="24.0" fill="#2C9DDA" transform="matrix(1.00, 0.00, -0.00, -1.00, 127.0, 347.4)">2</text><text xml:space="preserve" font-family="Inconsolata,Inconsolata" font-size="24.0" fill="#2C9DDA" transform="matrix(1.00, 0.00, -0.00, -1.00, 139.0, 347.4)"> </text><text xml:space="preserve" font-family="Inconsolata,Inconsolata" font-size="24.0" fill="#94A4A6" transform="matrix(1.00, 0.00, -0.00, -1.00, 151.0, 347.4)"> </text><text xml:space="preserve" font-family="Inconsolata,Inconsolata" font-size="24.0" fill="#94A4A6" transform="matrix(1.00, 0.00, -0.00, -1.00, 163.0, 347.4)"> </text><text xml:space="preserve" font-family="Inconsolata,Inconsolata" font-size="24.0" fill="#94A4A6" transform="matrix(1.00, 0.00, -0.00, -1.00, 175.0, 347.4)">r</text><text xml:space="preserve" font-family="Inconsolata,Inconsolata" font-size="24.0" fill="#94A4A6" transform="matrix(1.00, 0.00, -0.00, -1.00, 187.0, 347.4)">e</text><text xml:space="preserve" font-family="Inconsolata,Inconsolata" font-size="24.0" fill="#94A4A6" transform="matrix(1.00, 0.00, -0.00, -1.00, 199.0, 347.4)">n</text><text xml:space="preserve" font-family="Inconsolata,Inconsolata" font-size="24.0" fill="#94A4A6" transform="matrix(1.00, 0.00, -0.00, -1.00, 211.0, 347.4)">d</text><text xml:space="preserve" font-family="Inconsolata,Inconsolata" font-size="24.0" fill="#94A4A6" transform="matrix(1.00, 0.00, -0.00, -1.00, 223.0, 347.4)">e</text><text xml:space="preserve" font-family="Inconsolata,Inconsolata" font-size="24.0" fill="#94A4A6" transform="matrix(1.00, 0.00, -0.00, -1.00, 235.0, 347.4)">r</text><text xml:space="preserve" font-family="Inconsolata,Inconsolata" font-size="24.0" fill="#A3B0B0" transform="matrix(1.00, 0.00, -0.00, -1.00, 247.0, 347.4)">:</text><text xml:space="preserve" font-family="Inconsolata,Inconsolata" font-size="24.0" fill="#000000" transform="matrix(1.00, 0.00, -0.00, -1.00, 259.0, 347.4)"> </text><text xml:space="preserve" font-family="Inconsolata,Inconsolata" font-size="24.0" fill="#D6601A" transform="matrix(1.00, 0.00, -0.00, -1.00, 271.0, 347.4)">f</text><text xml:space="preserve" font-family="Inconsolata,Inconsolata" font-size="24.0" fill="#D6601A" transform="matrix(1.00, 0.00, -0.00, -1.00, 283.0, 347.4)">u</text><text xml:space="preserve" font-family="Inconsolata,Inconsolata" font-size="24.0" fill="#D6601A" transform="matrix(1.00, 0.00, -0.00, -1.00, 295.0, 347.4)">n</text><text xml:space="preserve" font-family="Inconsolata,Inconsolata" font-size="24.0" fill="#D6601A" transform="matrix(1.00, 0.00, -0.00, -1.00, 307.0, 347.4)">c</text><text xml:space="preserve" font-family="Inconsolata,Inconsolata" font-size="24.0" fill="#D6601A" transform="matrix(1.00, 0.00, -0.00, -1.00, 319.0, 347.4)">t</text><text xml:space="preserve" font-family="Inconsolata,Inconsolata" font-size="24.0" fill="#D6601A" transform="matrix(1.00, 0.00, -0.00, -1.00, 331.0, 347.4)">i</text><text xml:space="preserve" font-family="Inconsolata,Inconsolata" font-size="24.0" fill="#D6601A" transform="matrix(1.00, 0.00, -0.00, -1.00, 343.0, 347.4)">o</text><text xml:space="preserve" font-family="Inconsolata,Inconsolata" font-size="24.0" fill="#D6601A" transform="matrix(1.00, 0.00, -0.00, -1.00, 355.0, 347.4)">n</text><text xml:space="preserve" font-family="Inconsolata,Inconsolata" font-size="24.0" fill="#A3B0B0" transform="matrix(1.00, 0.00, -0.00, -1.00, 367.0, 347.4)">(</text><text xml:space="preserve" font-family="Inconsolata,Inconsolata" font-size="24.0" fill="#A3B0B0" transform="matrix(1.00, 0.00, -0.00, -1.00, 379.0, 347.4)">)</text><text xml:space="preserve" font-family="Inconsolata,Inconsolata" font-size="24.0" fill="#A3B0B0" transform="matrix(1.00, 0.00, -0.00, -1.00, 391.0, 347.4)">{</text><text xml:space="preserve" font-family="Inconsolata,Inconsolata" font-size="24.0" fill="#000000" transform="matrix(1.00, 0.00, -0.00, -1.00, 403.0, 347.4)"> </text><text xml:space="preserve" font-family="Inconsolata,Inconsolata" font-size="24.0" fill="#2C9DDA" transform="matrix(1.00, 0.00, -0.00, -1.00, 79.0, 321.4)"> </text><text xml:space="preserve" font-family="Inconsolata,Inconsolata" font-size="24.0" fill="#2C9DDA" transform="matrix(1.00, 0.00, -0.00, -1.00, 91.0, 321.4)"> </text><text xml:space="preserve" font-family="Inconsolata,Inconsolata" font-size="24.0" fill="#2C9DDA" transform="matrix(1.00, 0.00, -0.00, -1.00, 103.0, 321.4)"> </text><text xml:space="preserve" font-family="Inconsolata,Inconsolata" font-size="24.0" fill="#2C9DDA" transform="matrix(1.00, 0.00, -0.00, -1.00, 115.0, 321.4)"> </text><text xml:space="preserve" font-family="Inconsolata,Inconsolata" font-size="24.0" fill="#2C9DDA" transform="matrix(1.00, 0.00, -0.00, -1.00, 127.0, 321.4)">3</text><text xml:space="preserve" font-family="Inconsolata,Inconsolata" font-size="24.0" fill="#2C9DDA" transform="matrix(1.00, 0.00, -0.00, -1.00, 139.0, 321.4)"> </text><text xml:space="preserve" font-family="Inconsolata,Inconsolata" font-size="24.0" fill="#000000" transform="matrix(1.00, 0.00, -0.00, -1.00, 151.0, 321.4)"> </text><text xml:space="preserve" font-family="Inconsolata,Inconsolata" font-size="24.0" fill="#000000" transform="matrix(1.00, 0.00, -0.00, -1.00, 163.0, 321.4)"> </text><text xml:space="preserve" font-family="Inconsolata,Inconsolata" font-size="24.0" fill="#000000" transform="matrix(1.00, 0.00, -0.00, -1.00, 175.0, 321.4)"> </text><text xml:space="preserve" font-family="Inconsolata,Inconsolata" font-size="24.0" fill="#000000" transform="matrix(1.00, 0.00, -0.00, -1.00, 187.0, 321.4)"> </text><text xml:space="preserve" font-family="Inconsolata,Inconsolata" font-size="24.0" fill="#D6601A" transform="matrix(1.00, 0.00, -0.00, -1.00, 199.0, 321.4)">r</text><text xml:space="preserve" font-family="Inconsolata,Inconsolata" font-size="24.0" fill="#D6601A" transform="matrix(1.00, 0.00, -0.00, -1.00, 211.0, 321.4)">e</text><text xml:space="preserve" font-family="Inconsolata,Inconsolata" font-size="24.0" fill="#D6601A" transform="matrix(1.00, 0.00, -0.00, -1.00, 223.0, 321.4)">t</text><text xml:space="preserve" font-family="Inconsolata,Inconsolata" font-size="24.0" fill="#D6601A" transform="matrix(1.00, 0.00, -0.00, -1.00, 235.0, 321.4)">u</text><text xml:space="preserve" font-family="Inconsolata,Inconsolata" font-size="24.0" fill="#D6601A" transform="matrix(1.00, 0.00, -0.00, -1.00, 247.0, 321.4)">r</text><text xml:space="preserve" font-family="Inconsolata,Inconsolata" font-size="24.0" fill="#D6601A" transform="matrix(1.00, 0.00, -0.00, -1.00, 259.0, 321.4)">n</text><text xml:space="preserve" font-family="Inconsolata,Inconsolata" font-size="24.0" fill="#000000" transform="matrix(1.00, 0.00, -0.00, -1.00, 271.0, 321.4)"> </text><text xml:space="preserve" font-family="Inconsolata,Inconsolata" font-size="24.0" fill="#A3B0B0" transform="matrix(1.00, 0.00, -0.00, -1.00, 283.0, 321.4)">&lt;</text><text xml:space="preserve" font-family="Inconsolata,Inconsolata" font-size="24.0" fill="#94A4A6" transform="matrix(1.00, 0.00, -0.00, -1.00, 295.0, 321.4)">d</text><text xml:space="preserve" font-family="Inconsolata,Inconsolata" font-size="24.0" fill="#94A4A6" transform="matrix(1.00, 0.00, -0.00, -1.00, 307.0, 321.4)">i</text><text xml:space="preserve" font-family="Inconsolata,Inconsolata" font-size="24.0" fill="#94A4A6" transform="matrix(1.00, 0.00, -0.00, -1.00, 319.0, 321.4)">v</text><text xml:space="preserve" font-family="Inconsolata,Inconsolata" font-size="24.0" fill="#A3B0B0" transform="matrix(1.00, 0.00, -0.00, -1.00, 331.0, 321.4)">&gt;</text><text xml:space="preserve" font-family="Inconsolata,Inconsolata" font-size="24.0" fill="#A3B0B0" transform="matrix(1.00, 0.00, -0.00, -1.00, 343.0, 321.4)">&lt;</text><text xml:space="preserve" font-family="Inconsolata,Inconsolata" font-size="24.0" fill="#94A4A6" transform="matrix(1.00, 0.00, -0.00, -1.00, 355.0, 321.4)">M</text><text xml:space="preserve" font-family="Inconsolata,Inconsolata" font-size="24.0" fill="#94A4A6" transform="matrix(1.00, 0.00, -0.00, -1.00, 367.0, 321.4)">y</text><text xml:space="preserve" font-family="Inconsolata,Inconsolata" font-size="24.0" fill="#94A4A6" transform="matrix(1.00, 0.00, -0.00, -1.00, 379.0, 321.4)">O</text><text xml:space="preserve" font-family="Inconsolata,Inconsolata" font-size="24.0" fill="#94A4A6" transform="matrix(1.00, 0.00, -0.00, -1.00, 391.0, 321.4)">t</text><text xml:space="preserve" font-family="Inconsolata,Inconsolata" font-size="24.0" fill="#94A4A6" transform="matrix(1.00, 0.00, -0.00, -1.00, 403.0, 321.4)">h</text><text xml:space="preserve" font-family="Inconsolata,Inconsolata" font-size="24.0" fill="#94A4A6" transform="matrix(1.00, 0.00, -0.00, -1.00, 415.0, 321.4)">e</text><text xml:space="preserve" font-family="Inconsolata,Inconsolata" font-size="24.0" fill="#94A4A6" transform="matrix(1.00, 0.00, -0.00, -1.00, 427.0, 321.4)">r</text><text xml:space="preserve" font-family="Inconsolata,Inconsolata" font-size="24.0" fill="#94A4A6" transform="matrix(1.00, 0.00, -0.00, -1.00, 439.0, 321.4)">C</text><text xml:space="preserve" font-family="Inconsolata,Inconsolata" font-size="24.0" fill="#94A4A6" transform="matrix(1.00, 0.00, -0.00, -1.00, 451.0, 321.4)">o</text><text xml:space="preserve" font-family="Inconsolata,Inconsolata" font-size="24.0" fill="#94A4A6" transform="matrix(1.00, 0.00, -0.00, -1.00, 463.0, 321.4)">m</text><text xml:space="preserve" font-family="Inconsolata,Inconsolata" font-size="24.0" fill="#94A4A6" transform="matrix(1.00, 0.00, -0.00, -1.00, 475.0, 321.4)">p</text><text xml:space="preserve" font-family="Inconsolata,Inconsolata" font-size="24.0" fill="#94A4A6" transform="matrix(1.00, 0.00, -0.00, -1.00, 487.0, 321.4)">o</text><text xml:space="preserve" font-family="Inconsolata,Inconsolata" font-size="24.0" fill="#94A4A6" transform="matrix(1.00, 0.00, -0.00, -1.00, 499.0, 321.4)">n</text><text xml:space="preserve" font-family="Inconsolata,Inconsolata" font-size="24.0" fill="#94A4A6" transform="matrix(1.00, 0.00, -0.00, -1.00, 511.0, 321.4)">e</text><text xml:space="preserve" font-family="Inconsolata,Inconsolata" font-size="24.0" fill="#94A4A6" transform="matrix(1.00, 0.00, -0.00, -1.00, 523.0, 321.4)">n</text><text xml:space="preserve" font-family="Inconsolata,Inconsolata" font-size="24.0" fill="#94A4A6" transform="matrix(1.00, 0.00, -0.00, -1.00, 535.0, 321.4)">t</text><text xml:space="preserve" font-family="Inconsolata,Inconsolata" font-size="24.0" fill="#94A4A6" transform="matrix(1.00, 0.00, -0.00, -1.00, 547.0, 321.4)"> </text><text xml:space="preserve" font-family="Inconsolata,Inconsolata" font-size="24.0" fill="#94A4A6" transform="matrix(1.00, 0.00, -0.00, -1.00, 559.0, 321.4)">p</text><text xml:space="preserve" font-family="Inconsolata,Inconsolata" font-size="24.0" fill="#94A4A6" transform="matrix(1.00, 0.00, -0.00, -1.00, 571.0, 321.4)">r</text><text xml:space="preserve" font-family="Inconsolata,Inconsolata" font-size="24.0" fill="#94A4A6" transform="matrix(1.00, 0.00, -0.00, -1.00, 583.0, 321.4)">o</text><text xml:space="preserve" font-family="Inconsolata,Inconsolata" font-size="24.0" fill="#94A4A6" transform="matrix(1.00, 0.00, -0.00, -1.00, 595.0, 321.4)">p</text><text xml:space="preserve" font-family="Inconsolata,Inconsolata" font-size="24.0" fill="#94A4A6" transform="matrix(1.00, 0.00, -0.00, -1.00, 607.0, 321.4)">1</text><text xml:space="preserve" font-family="Inconsolata,Inconsolata" font-size="24.0" fill="#A3B0B0" transform="matrix(1.00, 0.00, -0.00, -1.00, 619.0, 321.4)">=</text><text xml:space="preserve" font-family="Inconsolata,Inconsolata" font-size="24.0" fill="#E5493C" transform="matrix(1.00, 0.00, -0.00, -1.00, 631.0, 321.4)">"</text><text xml:space="preserve" font-family="Inconsolata,Inconsolata" font-size="24.0" fill="#E5493C" transform="matrix(1.00, 0.00, -0.00, -1.00, 643.0, 321.4)">v</text><text xml:space="preserve" font-family="Inconsolata,Inconsolata" font-size="24.0" fill="#E5493C" transform="matrix(1.00, 0.00, -0.00, -1.00, 655.0, 321.4)">a</text><text xml:space="preserve" font-family="Inconsolata,Inconsolata" font-size="24.0" fill="#E5493C" transform="matrix(1.00, 0.00, -0.00, -1.00, 667.0, 321.4)">l</text><text xml:space="preserve" font-family="Inconsolata,Inconsolata" font-size="24.0" fill="#E5493C" transform="matrix(1.00, 0.00, -0.00, -1.00, 679.0, 321.4)">u</text><text xml:space="preserve" font-family="Inconsolata,Inconsolata" font-size="24.0" fill="#E5493C" transform="matrix(1.00, 0.00, -0.00, -1.00, 691.0, 321.4)">e</text><text xml:space="preserve" font-family="Inconsolata,Inconsolata" font-size="24.0" fill="#E5493C" transform="matrix(1.00, 0.00, -0.00, -1.00, 703.0, 321.4)">"</text><text xml:space="preserve" font-family="Inconsolata,Inconsolata" font-size="24.0" fill="#94A4A6" transform="matrix(1.00, 0.00, -0.00, -1.00, 715.0, 321.4)">/</text><text xml:space="preserve" font-family="Inconsolata,Inconsolata" font-size="24.0" fill="#94A4A6" transform="matrix(1.00, 0.00, -0.00, -1.00, 727.0, 321.4)">&gt;</text><text xml:space="preserve" font-family="Inconsolata,Inconsolata" font-size="24.0" fill="#94A4A6" transform="matrix(1.00, 0.00, -0.00, -1.00, 739.0, 321.4)">&lt;</text><text xml:space="preserve" font-family="Inconsolata,Inconsolata" font-size="24.0" fill="#94A4A6" transform="matrix(1.00, 0.00, -0.00, -1.00, 751.0, 321.4)">/</text><text xml:space="preserve" font-family="Inconsolata,Inconsolata" font-size="24.0" fill="#94A4A6" transform="matrix(1.00, 0.00, -0.00, -1.00, 763.0, 321.4)">d</text><text xml:space="preserve" font-family="Inconsolata,Inconsolata" font-size="24.0" fill="#94A4A6" transform="matrix(1.00, 0.00, -0.00, -1.00, 775.0, 321.4)">i</text><text xml:space="preserve" font-family="Inconsolata,Inconsolata" font-size="24.0" fill="#94A4A6" transform="matrix(1.00, 0.00, -0.00, -1.00, 787.0, 321.4)">v</text><text xml:space="preserve" font-family="Inconsolata,Inconsolata" font-size="24.0" fill="#94A4A6" transform="matrix(1.00, 0.00, -0.00, -1.00, 799.0, 321.4)">&gt;</text><text xml:space="preserve" font-family="Inconsolata,Inconsolata" font-size="24.0" fill="#000000" transform="matrix(1.00, 0.00, -0.00, -1.00, 811.0, 321.4)"> </text><text xml:space="preserve" font-family="Inconsolata,Inconsolata" font-size="24.0" fill="#2C9DDA" transform="matrix(1.00, 0.00, -0.00, -1.00, 79.0, 295.4)"> </text><text xml:space="preserve" font-family="Inconsolata,Inconsolata" font-size="24.0" fill="#2C9DDA" transform="matrix(1.00, 0.00, -0.00, -1.00, 91.0, 295.4)"> </text><text xml:space="preserve" font-family="Inconsolata,Inconsolata" font-size="24.0" fill="#2C9DDA" transform="matrix(1.00, 0.00, -0.00, -1.00, 103.0, 295.4)"> </text><text xml:space="preserve" font-family="Inconsolata,Inconsolata" font-size="24.0" fill="#2C9DDA" transform="matrix(1.00, 0.00, -0.00, -1.00, 115.0, 295.4)"> </text><text xml:space="preserve" font-family="Inconsolata,Inconsolata" font-size="24.0" fill="#2C9DDA" transform="matrix(1.00, 0.00, -0.00, -1.00, 127.0, 295.4)">4</text><text xml:space="preserve" font-family="Inconsolata,Inconsolata" font-size="24.0" fill="#2C9DDA" transform="matrix(1.00, 0.00, -0.00, -1.00, 139.0, 295.4)"> </text><text xml:space="preserve" font-family="Inconsolata,Inconsolata" font-size="24.0" fill="#000000" transform="matrix(1.00, 0.00, -0.00, -1.00, 151.0, 295.4)"> </text><text xml:space="preserve" font-family="Inconsolata,Inconsolata" font-size="24.0" fill="#000000" transform="matrix(1.00, 0.00, -0.00, -1.00, 163.0, 295.4)"> </text><text xml:space="preserve" font-family="Inconsolata,Inconsolata" font-size="24.0" fill="#A3B0B0" transform="matrix(1.00, 0.00, -0.00, -1.00, 175.0, 295.4)">}</text><text xml:space="preserve" font-family="Inconsolata,Inconsolata" font-size="24.0" fill="#000000" transform="matrix(1.00, 0.00, -0.00, -1.00, 187.0, 295.4)"> </text><text xml:space="preserve" font-family="Inconsolata,Inconsolata" font-size="24.0" fill="#2C9DDA" transform="matrix(1.00, 0.00, -0.00, -1.00, 79.0, 269.4)"> </text><text xml:space="preserve" font-family="Inconsolata,Inconsolata" font-size="24.0" fill="#2C9DDA" transform="matrix(1.00, 0.00, -0.00, -1.00, 91.0, 269.4)"> </text><text xml:space="preserve" font-family="Inconsolata,Inconsolata" font-size="24.0" fill="#2C9DDA" transform="matrix(1.00, 0.00, -0.00, -1.00, 103.0, 269.4)"> </text><text xml:space="preserve" font-family="Inconsolata,Inconsolata" font-size="24.0" fill="#2C9DDA" transform="matrix(1.00, 0.00, -0.00, -1.00, 115.0, 269.4)"> </text><text xml:space="preserve" font-family="Inconsolata,Inconsolata" font-size="24.0" fill="#2C9DDA" transform="matrix(1.00, 0.00, -0.00, -1.00, 127.0, 269.4)">5</text><text xml:space="preserve" font-family="Inconsolata,Inconsolata" font-size="24.0" fill="#2C9DDA" transform="matrix(1.00, 0.00, -0.00, -1.00, 139.0, 269.4)"> </text><text xml:space="preserve" font-family="Inconsolata,Inconsolata" font-size="24.0" fill="#A3B0B0" transform="matrix(1.00, 0.00, -0.00, -1.00, 151.0, 269.4)">}</text><text xml:space="preserve" font-family="Inconsolata,Inconsolata" font-size="24.0" fill="#A3B0B0" transform="matrix(1.00, 0.00, -0.00, -1.00, 163.0, 269.4)">)</text><text xml:space="preserve" font-family="Inconsolata,Inconsolata" font-size="24.0" fill="#A3B0B0" transform="matrix(1.00, 0.00, -0.00, -1.00, 175.0, 269.4)">;</text><text xml:space="preserve" font-family="Inconsolata,Inconsolata" font-size="24.0" fill="#A3B0B0" transform="matrix(1.00, 0.00, -0.00, -1.00, 187.0, 269.4)"> </text><text xml:space="preserve" font-family="Inconsolata,Inconsolata" font-size="24.0" fill="#2C9DDA" transform="matrix(1.00, 0.00, -0.00, -1.00, 79.0, 243.4)"> </text><text xml:space="preserve" font-family="Inconsolata,Inconsolata" font-size="24.0" fill="#2C9DDA" transform="matrix(1.00, 0.00, -0.00, -1.00, 91.0, 243.4)"> </text><text xml:space="preserve" font-family="Inconsolata,Inconsolata" font-size="24.0" fill="#2C9DDA" transform="matrix(1.00, 0.00, -0.00, -1.00, 103.0, 243.4)"> </text><text xml:space="preserve" font-family="Inconsolata,Inconsolata" font-size="24.0" fill="#2C9DDA" transform="matrix(1.00, 0.00, -0.00, -1.00, 115.0, 243.4)"> </text><text xml:space="preserve" font-family="Inconsolata,Inconsolata" font-size="24.0" fill="#2C9DDA" transform="matrix(1.00, 0.00, -0.00, -1.00, 127.0, 243.4)">6</text><text xml:space="preserve" font-family="Inconsolata,Inconsolata" font-size="24.0" fill="#2C9DDA" transform="matrix(1.00, 0.00, -0.00, -1.00, 139.0, 243.4)"> </text><text xml:space="preserve" font-family="Inconsolata,Inconsolata" font-size="24.0" fill="#94A4A6" transform="matrix(1.00, 0.00, -0.00, -1.00, 151.0, 243.4)">R</text><text xml:space="preserve" font-family="Inconsolata,Inconsolata" font-size="24.0" fill="#94A4A6" transform="matrix(1.00, 0.00, -0.00, -1.00, 163.0, 243.4)">e</text><text xml:space="preserve" font-family="Inconsolata,Inconsolata" font-size="24.0" fill="#94A4A6" transform="matrix(1.00, 0.00, -0.00, -1.00, 175.0, 243.4)">a</text><text xml:space="preserve" font-family="Inconsolata,Inconsolata" font-size="24.0" fill="#94A4A6" transform="matrix(1.00, 0.00, -0.00, -1.00, 187.0, 243.4)">c</text><text xml:space="preserve" font-family="Inconsolata,Inconsolata" font-size="24.0" fill="#94A4A6" transform="matrix(1.00, 0.00, -0.00, -1.00, 199.0, 243.4)">t</text><text xml:space="preserve" font-family="Inconsolata,Inconsolata" font-size="24.0" fill="#A3B0B0" transform="matrix(1.00, 0.00, -0.00, -1.00, 211.0, 243.4)">.</text><text xml:space="preserve" font-family="Inconsolata,Inconsolata" font-size="24.0" fill="#A3B0B0" transform="matrix(1.00, 0.00, -0.00, -1.00, 223.0, 243.4)">r</text><text xml:space="preserve" font-family="Inconsolata,Inconsolata" font-size="24.0" fill="#A3B0B0" transform="matrix(1.00, 0.00, -0.00, -1.00, 235.0, 243.4)">e</text><text xml:space="preserve" font-family="Inconsolata,Inconsolata" font-size="24.0" fill="#A3B0B0" transform="matrix(1.00, 0.00, -0.00, -1.00, 247.0, 243.4)">n</text><text xml:space="preserve" font-family="Inconsolata,Inconsolata" font-size="24.0" fill="#A3B0B0" transform="matrix(1.00, 0.00, -0.00, -1.00, 259.0, 243.4)">d</text><text xml:space="preserve" font-family="Inconsolata,Inconsolata" font-size="24.0" fill="#A3B0B0" transform="matrix(1.00, 0.00, -0.00, -1.00, 271.0, 243.4)">e</text><text xml:space="preserve" font-family="Inconsolata,Inconsolata" font-size="24.0" fill="#A3B0B0" transform="matrix(1.00, 0.00, -0.00, -1.00, 283.0, 243.4)">r</text><text xml:space="preserve" font-family="Inconsolata,Inconsolata" font-size="24.0" fill="#A3B0B0" transform="matrix(1.00, 0.00, -0.00, -1.00, 295.0, 243.4)">(</text><text xml:space="preserve" font-family="Inconsolata,Inconsolata" font-size="24.0" fill="#A3B0B0" transform="matrix(1.00, 0.00, -0.00, -1.00, 307.0, 243.4)"> </text><text xml:space="preserve" font-family="Inconsolata,Inconsolata" font-size="24.0" fill="#A3B0B0" transform="matrix(1.00, 0.00, -0.00, -1.00, 319.0, 243.4)">&lt;</text><text xml:space="preserve" font-family="Inconsolata,Inconsolata" font-size="24.0" fill="#94A4A6" transform="matrix(1.00, 0.00, -0.00, -1.00, 331.0, 243.4)">M</text><text xml:space="preserve" font-family="Inconsolata,Inconsolata" font-size="24.0" fill="#94A4A6" transform="matrix(1.00, 0.00, -0.00, -1.00, 343.0, 243.4)">y</text><text xml:space="preserve" font-family="Inconsolata,Inconsolata" font-size="24.0" fill="#94A4A6" transform="matrix(1.00, 0.00, -0.00, -1.00, 355.0, 243.4)">C</text><text xml:space="preserve" font-family="Inconsolata,Inconsolata" font-size="24.0" fill="#94A4A6" transform="matrix(1.00, 0.00, -0.00, -1.00, 367.0, 243.4)">o</text><text xml:space="preserve" font-family="Inconsolata,Inconsolata" font-size="24.0" fill="#94A4A6" transform="matrix(1.00, 0.00, -0.00, -1.00, 379.0, 243.4)">m</text><text xml:space="preserve" font-family="Inconsolata,Inconsolata" font-size="24.0" fill="#94A4A6" transform="matrix(1.00, 0.00, -0.00, -1.00, 391.0, 243.4)">p</text><text xml:space="preserve" font-family="Inconsolata,Inconsolata" font-size="24.0" fill="#94A4A6" transform="matrix(1.00, 0.00, -0.00, -1.00, 403.0, 243.4)">o</text><text xml:space="preserve" font-family="Inconsolata,Inconsolata" font-size="24.0" fill="#94A4A6" transform="matrix(1.00, 0.00, -0.00, -1.00, 415.0, 243.4)">n</text><text xml:space="preserve" font-family="Inconsolata,Inconsolata" font-size="24.0" fill="#94A4A6" transform="matrix(1.00, 0.00, -0.00, -1.00, 427.0, 243.4)">e</text><text xml:space="preserve" font-family="Inconsolata,Inconsolata" font-size="24.0" fill="#94A4A6" transform="matrix(1.00, 0.00, -0.00, -1.00, 439.0, 243.4)">n</text><text xml:space="preserve" font-family="Inconsolata,Inconsolata" font-size="24.0" fill="#94A4A6" transform="matrix(1.00, 0.00, -0.00, -1.00, 451.0, 243.4)">t</text><text xml:space="preserve" font-family="Inconsolata,Inconsolata" font-size="24.0" fill="#A3B0B0" transform="matrix(1.00, 0.00, -0.00, -1.00, 463.0, 243.4)">&gt;</text><text xml:space="preserve" font-family="Inconsolata,Inconsolata" font-size="24.0" fill="#A3B0B0" transform="matrix(1.00, 0.00, -0.00, -1.00, 475.0, 243.4)">,</text><text xml:space="preserve" font-family="Inconsolata,Inconsolata" font-size="24.0" fill="#A3B0B0" transform="matrix(1.00, 0.00, -0.00, -1.00, 487.0, 243.4)"> </text><text xml:space="preserve" font-family="Inconsolata,Inconsolata" font-size="24.0" fill="#A3B0B0" transform="matrix(1.00, 0.00, -0.00, -1.00, 499.0, 243.4)">d</text><text xml:space="preserve" font-family="Inconsolata,Inconsolata" font-size="24.0" fill="#A3B0B0" transform="matrix(1.00, 0.00, -0.00, -1.00, 511.0, 243.4)">o</text><text xml:space="preserve" font-family="Inconsolata,Inconsolata" font-size="24.0" fill="#A3B0B0" transform="matrix(1.00, 0.00, -0.00, -1.00, 523.0, 243.4)">c</text><text xml:space="preserve" font-family="Inconsolata,Inconsolata" font-size="24.0" fill="#A3B0B0" transform="matrix(1.00, 0.00, -0.00, -1.00, 535.0, 243.4)">u</text><text xml:space="preserve" font-family="Inconsolata,Inconsolata" font-size="24.0" fill="#A3B0B0" transform="matrix(1.00, 0.00, -0.00, -1.00, 547.0, 243.4)">m</text><text xml:space="preserve" font-family="Inconsolata,Inconsolata" font-size="24.0" fill="#A3B0B0" transform="matrix(1.00, 0.00, -0.00, -1.00, 559.0, 243.4)">e</text><text xml:space="preserve" font-family="Inconsolata,Inconsolata" font-size="24.0" fill="#A3B0B0" transform="matrix(1.00, 0.00, -0.00, -1.00, 571.0, 243.4)">n</text><text xml:space="preserve" font-family="Inconsolata,Inconsolata" font-size="24.0" fill="#A3B0B0" transform="matrix(1.00, 0.00, -0.00, -1.00, 583.0, 243.4)">t</text><text xml:space="preserve" font-family="Inconsolata,Inconsolata" font-size="24.0" fill="#A3B0B0" transform="matrix(1.00, 0.00, -0.00, -1.00, 595.0, 243.4)">.</text><text xml:space="preserve" font-family="Inconsolata,Inconsolata" font-size="24.0" fill="#A3B0B0" transform="matrix(1.00, 0.00, -0.00, -1.00, 607.0, 243.4)">b</text><text xml:space="preserve" font-family="Inconsolata,Inconsolata" font-size="24.0" fill="#A3B0B0" transform="matrix(1.00, 0.00, -0.00, -1.00, 619.0, 243.4)">o</text><text xml:space="preserve" font-family="Inconsolata,Inconsolata" font-size="24.0" fill="#A3B0B0" transform="matrix(1.00, 0.00, -0.00, -1.00, 631.0, 243.4)">d</text><text xml:space="preserve" font-family="Inconsolata,Inconsolata" font-size="24.0" fill="#A3B0B0" transform="matrix(1.00, 0.00, -0.00, -1.00, 643.0, 243.4)">y</text><text xml:space="preserve" font-family="Inconsolata,Inconsolata" font-size="24.0" fill="#A3B0B0" transform="matrix(1.00, 0.00, -0.00, -1.00, 655.0, 243.4)"> </text><text xml:space="preserve" font-family="Inconsolata,Inconsolata" font-size="24.0" fill="#A3B0B0" transform="matrix(1.00, 0.00, -0.00, -1.00, 667.0, 243.4)">)</text><text xml:space="preserve" font-family="Inconsolata,Inconsolata" font-size="24.0" fill="#A3B0B0" transform="matrix(1.00, 0.00, -0.00, -1.00, 679.0, 243.4)">;</text></g></svg>