<?xml version="1.0" encoding="UTF-8" standalone="no"?><svg xmlns="http://www.w3.org/2000/svg" xmlns:xlink="http://www.w3.org/1999/xlink" clip-rule="evenodd" stroke-miterlimit="10" viewBox="0 0 426 162"><desc>SVG generated by Keynote</desc><defs></defs><g transform="matrix(1.00, 0.00, -0.00, -1.00, 0.0, 162.0)"><g><clipPath id="clip0x7fa265981520"><path d="M 309.3 101.5 L 430.7 101.5 L 430.7 166.8 L 309.3 166.8 Z M 309.3 101.5 "></path></clipPath><g clip-path="url(#clip0x7fa265981520)"><text xml:space="preserve" font-family="HelveticaNeue-Light,Helvetica Neue" font-size="36.0" fill="#60D9FB" transform="matrix(1.00, 0.00, -0.00, -1.00, 320.4, 120.9)">&lt;</text><text xml:space="preserve" font-family="HelveticaNeue-Light,Helvetica Neue" font-size="36.0" fill="#60D9FB" transform="matrix(1.00, 0.00, -0.00, -1.00, 342.0, 120.9)">d</text><text xml:space="preserve" font-family="HelveticaNeue-Light,Helvetica Neue" font-size="36.0" fill="#60D9FB" transform="matrix(1.00, 0.00, -0.00, -1.00, 362.7, 120.9)">i</text><text xml:space="preserve" font-family="HelveticaNeue-Light,Helvetica Neue" font-size="36.0" fill="#60D9FB" transform="matrix(1.00, 0.00, -0.00, -1.00, 369.3, 120.9)">v</text><text xml:space="preserve" font-family="HelveticaNeue-Light,Helvetica Neue" font-size="36.0" fill="#60D9FB" transform="matrix(1.00, 0.00, -0.00, -1.00, 386.0, 120.9)">/</text><text xml:space="preserve" font-family="HelveticaNeue-Light,Helvetica Neue" font-size="36.0" fill="#60D9FB" transform="matrix(1.00, 0.00, -0.00, -1.00, 398.0, 120.9)">&gt;</text></g></g><g><clipPath id="clip0x7fa265986ef0"><path d="M 0.3 0.1 L 111.3 0.1 L 111.3 111.1 L 0.3 111.1 Z M 0.3 0.1 "></path></clipPath><g clip-path="url(#clip0x7fa265986ef0)"><path d="M 85.4 14.6 C 104.9 34.2 104.9 65.8 85.4 85.4 C 65.8 104.9 34.2 104.9 14.6 85.4 C -4.9 65.8 -4.9 34.2 14.6 14.6 C 34.2 -4.9 65.8 -4.9 85.4 14.6 Z M 85.4 14.6 " fill="none" stroke="#60D9FB" stroke-width="9.00" transform="matrix(1.00, 0.00, 0.00, -1.00, 5.8, 105.6)"></path></g></g></g></svg>