<?xml version="1.0" encoding="UTF-8" standalone="no"?><svg xmlns="http://www.w3.org/2000/svg" xmlns:xlink="http://www.w3.org/1999/xlink" clip-rule="evenodd" stroke-miterlimit="10" viewBox="0 0 701 112"><desc>SVG generated by Keynote</desc><defs></defs><g transform="matrix(1.00, 0.00, -0.00, -1.00, 0.0, 112.0)"><g><clipPath id="clip0x7fa265eca9a0"><path d="M 441.6 47.0 L 706.6 47.0 L 706.6 112.2 L 441.6 112.2 Z M 441.6 47.0 "></path></clipPath><g clip-path="url(#clip0x7fa265eca9a0)"><text xml:space="preserve" font-family="HelveticaNeue-Light,Helvetica Neue" font-size="36.0" fill="#60D9FB" transform="matrix(1.00, 0.00, -0.00, -1.00, 452.7, 66.3)">&lt;</text><text xml:space="preserve" font-family="HelveticaNeue-Light,Helvetica Neue" font-size="36.0" fill="#60D9FB" transform="matrix(1.00, 0.00, -0.00, -1.00, 474.3, 66.3)">d</text><text xml:space="preserve" font-family="HelveticaNeue-Light,Helvetica Neue" font-size="36.0" fill="#60D9FB" transform="matrix(1.00, 0.00, -0.00, -1.00, 494.9, 66.3)">i</text><text xml:space="preserve" font-family="HelveticaNeue-Light,Helvetica Neue" font-size="36.0" fill="#60D9FB" transform="matrix(1.00, 0.00, -0.00, -1.00, 501.6, 66.3)">v</text><text xml:space="preserve" font-family="HelveticaNeue-Light,Helvetica Neue" font-size="36.0" fill="#60D9FB" transform="matrix(1.00, 0.00, -0.00, -1.00, 518.3, 66.3)"> </text><text xml:space="preserve" font-family="HelveticaNeue-Light,Helvetica Neue" font-size="36.0" fill="#60D9FB" transform="matrix(1.00, 0.00, -0.00, -1.00, 528.3, 66.3)">c</text><text xml:space="preserve" font-family="HelveticaNeue-Light,Helvetica Neue" font-size="36.0" fill="#60D9FB" transform="matrix(1.00, 0.00, -0.00, -1.00, 547.0, 66.3)">l</text><text xml:space="preserve" font-family="HelveticaNeue-Light,Helvetica Neue" font-size="36.0" fill="#60D9FB" transform="matrix(1.00, 0.00, -0.00, -1.00, 553.6, 66.3)">a</text><text xml:space="preserve" font-family="HelveticaNeue-Light,Helvetica Neue" font-size="36.0" fill="#60D9FB" transform="matrix(1.00, 0.00, -0.00, -1.00, 572.3, 66.3)">s</text><text xml:space="preserve" font-family="HelveticaNeue-Light,Helvetica Neue" font-size="36.0" fill="#60D9FB" transform="matrix(1.00, 0.00, -0.00, -1.00, 589.6, 66.3)">s</text><text xml:space="preserve" font-family="HelveticaNeue-Light,Helvetica Neue" font-size="36.0" fill="#60D9FB" transform="matrix(1.00, 0.00, -0.00, -1.00, 606.9, 66.3)">=</text><text xml:space="preserve" font-family="HelveticaNeue-Light,Helvetica Neue" font-size="36.0" fill="#60D9FB" transform="matrix(1.00, 0.00, -0.00, -1.00, 628.5, 66.3)">“</text><text xml:space="preserve" font-family="HelveticaNeue-Light,Helvetica Neue" font-size="36.0" fill="#60D9FB" transform="matrix(1.00, 0.00, -0.00, -1.00, 641.9, 66.3)">a</text><text xml:space="preserve" font-family="HelveticaNeue-Light,Helvetica Neue" font-size="36.0" fill="#60D9FB" transform="matrix(1.00, 0.00, -0.00, -1.00, 660.5, 66.3)">”</text><text xml:space="preserve" font-family="HelveticaNeue-Light,Helvetica Neue" font-size="36.0" fill="#60D9FB" transform="matrix(1.00, 0.00, -0.00, -1.00, 673.9, 66.3)">&gt;</text></g></g><g><clipPath id="clip0x7fa265ed4b90"><path d="M 0.1 0.1 L 111.1 0.1 L 111.1 111.1 L 0.1 111.1 Z M 0.1 0.1 "></path></clipPath><g clip-path="url(#clip0x7fa265ed4b90)"><path d="M 85.4 14.6 C 104.9 34.2 104.9 65.8 85.4 85.4 C 65.8 104.9 34.2 104.9 14.6 85.4 C -4.9 65.8 -4.9 34.2 14.6 14.6 C 34.2 -4.9 65.8 -4.9 85.4 14.6 Z M 85.4 14.6 " fill="none" stroke="#60D9FB" stroke-width="9.00" transform="matrix(1.00, 0.00, 0.00, -1.00, 5.6, 105.6)"></path></g></g></g></svg>