<?xml version="1.0" encoding="UTF-8" standalone="no"?><svg xmlns="http://www.w3.org/2000/svg" xmlns:xlink="http://www.w3.org/1999/xlink" clip-rule="evenodd" stroke-miterlimit="10" viewBox="0 0 103 452"><desc>SVG generated by Keynote</desc><defs><pattern id="A6A93FF3-C3CE-4720-AB0C-ED133E3126E3" patternUnits="userSpaceOnUse" width="256" height="256" viewBox="0 0 256 256"><image xlink:href="2E46DA311AF3B73A4E9A2E7FFBE936DB.png" width="256.00" height="256.00"></image></pattern></defs><g transform="matrix(1.00, 0.00, -0.00, -1.00, 0.0, 452.0)"><g><clipPath id="clip0x7fa2666436f0"><path d="M 31.0 50.0 L 1.3 50.0 L 51.3 1.8 L 101.3 50.0 L 72.0 50.0 L 72.0 450.0 L 31.0 450.0 Z M 30.9 49.8 "></path></clipPath><g clip-path="url(#clip0x7fa2666436f0)"><path d="M 1.3 450.0 L 1.3 1.8 L 101.3 1.8 L 101.3 450.0 Z M 1.3 450.0 " fill="url(#A6A93FF3-C3CE-4720-AB0C-ED133E3126E3)"></path></g></g><g><clipPath id="clip0x7fa266518b70"><path d="M 101.3 452.7 L 101.3 1.8 L 1.3 1.8 L 1.3 452.7 Z M 101.3 452.7 "></path></clipPath><g clip-path="url(#clip0x7fa266518b70)"><text xml:space="preserve" font-family="Helvetica-Light,Helvetica" font-size="26.0" fill="#FEFFFF" transform="matrix(0.00, -1.00, -1.00, -0.00, 42.3, 292.2)">O</text><text xml:space="preserve" font-family="Helvetica-Light,Helvetica" font-size="26.0" fill="#FEFFFF" transform="matrix(0.00, -1.00, -1.00, -0.00, 42.3, 272.0)">N</text><text xml:space="preserve" font-family="Helvetica-Light,Helvetica" font-size="26.0" fill="#FEFFFF" transform="matrix(0.00, -1.00, -1.00, -0.00, 42.3, 253.2)">E</text><text xml:space="preserve" font-family="Helvetica-Light,Helvetica" font-size="26.0" fill="#FEFFFF" transform="matrix(0.00, -1.00, -1.00, -0.00, 42.3, 237.3)"> </text><text xml:space="preserve" font-family="Helvetica-Light,Helvetica" font-size="26.0" fill="#FEFFFF" transform="matrix(0.00, -1.00, -1.00, -0.00, 42.3, 230.1)">W</text><text xml:space="preserve" font-family="Helvetica-Light,Helvetica" font-size="26.0" fill="#FEFFFF" transform="matrix(0.00, -1.00, -1.00, -0.00, 42.3, 208.0)">A</text><text xml:space="preserve" font-family="Helvetica-Light,Helvetica" font-size="26.0" fill="#FEFFFF" transform="matrix(0.00, -1.00, -1.00, -0.00, 42.3, 192.5)">Y</text></g></g></g></svg>