<?xml version="1.0" encoding="UTF-8" standalone="no"?><svg xmlns="http://www.w3.org/2000/svg" xmlns:xlink="http://www.w3.org/1999/xlink" clip-rule="evenodd" stroke-miterlimit="10" viewBox="0 0 176 168"><desc>SVG generated by Keynote</desc><defs><pattern id="74150419-6D27-4BA8-A47F-15A358C76DDB" patternUnits="userSpaceOnUse" width="256" height="256" viewBox="0 0 256 256"><image xlink:href="../../CC5E725B-11EE-4011-B6BD-4F6EE566F654/assets/2E46DA311AF3B73A4E9A2E7FFBE936DB.png" width="256.00" height="256.00"></image></pattern></defs><g transform="matrix(1.00, 0.00, -0.00, -1.00, 0.0, 168.0)"><g><clipPath id="clip0x7fa2667771b0"><path d="M 1.7 25.9 L 2.0 142.1 C 2.0 155.8 12.9 167.0 26.6 167.0 L 149.1 167.0 C 162.9 167.0 174.0 155.8 174.0 142.1 L 174.0 25.9 C 174.0 12.2 162.9 1.0 149.1 1.0 L 26.6 1.0 C 12.9 1.0 1.7 12.2 1.7 25.9 Z M 1.7 25.9 "></path></clipPath><g clip-path="url(#clip0x7fa2667771b0)"><path d="M 1.7 1.0 L 174.0 1.0 L 174.0 167.0 L 1.7 167.0 Z M 1.7 1.0 " fill="url(#74150419-6D27-4BA8-A47F-15A358C76DDB)"></path></g></g><g><clipPath id="clip0x7fa266619d70"><path d="M -0.8 1.0 L 176.5 1.0 L 176.5 167.0 L -0.8 167.0 Z M -0.8 1.0 "></path></clipPath><g clip-path="url(#clip0x7fa266619d70)"><text xml:space="preserve" font-family="Helvetica-Light,Helvetica" font-size="26.0" fill="#FEFFFF" transform="matrix(1.00, 0.00, -0.00, -1.00, 41.6, 74.4)">M</text><text xml:space="preserve" font-family="Helvetica-Light,Helvetica" font-size="26.0" fill="#FEFFFF" transform="matrix(1.00, 0.00, -0.00, -1.00, 63.3, 74.4)">a</text><text xml:space="preserve" font-family="Helvetica-Light,Helvetica" font-size="26.0" fill="#FEFFFF" transform="matrix(1.00, 0.00, -0.00, -1.00, 77.7, 74.4)">i</text><text xml:space="preserve" font-family="Helvetica-Light,Helvetica" font-size="26.0" fill="#FEFFFF" transform="matrix(1.00, 0.00, -0.00, -1.00, 83.5, 74.4)">l</text><text xml:space="preserve" font-family="Helvetica-Light,Helvetica" font-size="26.0" fill="#FEFFFF" transform="matrix(1.00, 0.00, -0.00, -1.00, 89.3, 74.4)">B</text><text xml:space="preserve" font-family="Helvetica-Light,Helvetica" font-size="26.0" fill="#FEFFFF" transform="matrix(1.00, 0.00, -0.00, -1.00, 106.6, 74.4)">o</text><text xml:space="preserve" font-family="Helvetica-Light,Helvetica" font-size="26.0" fill="#FEFFFF" transform="matrix(1.00, 0.00, -0.00, -1.00, 121.1, 74.4)">x</text></g></g></g></svg>