<?xml version="1.0" encoding="UTF-8" standalone="no"?><svg xmlns="http://www.w3.org/2000/svg" xmlns:xlink="http://www.w3.org/1999/xlink" clip-rule="evenodd" stroke-miterlimit="10" viewBox="0 0 1024 768"><desc>SVG generated by Keynote</desc><defs><pattern id="922FD3A0-58B2-4DBE-A2A6-6644330AE8AF" patternUnits="userSpaceOnUse" width="256" height="256" viewBox="0 0 256 256"><image xlink:href="../../CC5E725B-11EE-4011-B6BD-4F6EE566F654/assets/2E46DA311AF3B73A4E9A2E7FFBE936DB.png" width="256.00" height="256.00"></image></pattern><pattern id="A328EF1A-8E82-40CF-99D8-F862DEBE8EE5" patternUnits="userSpaceOnUse" width="256" height="256" viewBox="0 0 256 256"><image xlink:href="../../CC5E725B-11EE-4011-B6BD-4F6EE566F654/assets/2E46DA311AF3B73A4E9A2E7FFBE936DB.png" width="256.00" height="256.00"></image></pattern></defs><g transform="matrix(1.00, 0.00, -0.00, -1.00, 0.0, 768.0)"><path d="M 0.0 768.0 L 1024.0 768.0 L 1024.0 0.0 L 0.0 0.0 Z M 0.0 768.0 " fill="#212121"></path><g><clipPath id="clip0x7fa2667bb250"><path d="M 601.8 479.8 L 538.8 416.5 L 671.9 284.0 L 735.0 347.3 Z M 601.8 479.8 "></path></clipPath><g clip-path="url(#clip0x7fa2667bb250)"><path d="M 83.7 0.0 L 0.0 184.2 " fill="none" stroke="#BEBEBE" stroke-width="4.00" transform="matrix(-0.71, -0.71, 0.71, -0.71, 601.1, 476.6)"></path></g></g><g><clipPath id="clip0x7fa2667c7e20"><path d="M 450.5 565.8 L 491.2 540.7 L 448.9 472.1 L 408.3 497.2 Z M 450.5 565.8 "></path></clipPath><g clip-path="url(#clip0x7fa2667c7e20)"><path d="M 42.2 0.0 L 0.0 76.6 " fill="none" stroke="#BEBEBE" stroke-width="4.00" transform="matrix(0.85, -0.52, -0.52, -0.85, 451.8, 562.6)"></path></g></g><g><clipPath id="clip0x7fa2667cccd0"><path d="M 507.9 388.6 L 514.6 388.8 L 515.3 348.0 L 508.6 347.9 Z M 507.9 388.6 "></path></clipPath><g clip-path="url(#clip0x7fa2667cccd0)"><path d="M 0.7 0.0 L 0.0 38.7 " fill="none" stroke="#BEBEBE" stroke-width="4.00" transform="matrix(1.00, 0.02, 0.02, -1.00, 510.9, 387.7)"></path></g></g><g><clipPath id="clip0x7fa2667cdcf0"><path d="M 421.4 479.8 L 484.4 416.5 L 351.3 284.0 L 288.2 347.3 Z M 421.4 479.8 "></path></clipPath><g clip-path="url(#clip0x7fa2667cdcf0)"><path d="M 83.7 0.0 L 0.0 184.2 " fill="none" stroke="#BEBEBE" stroke-width="4.00" transform="matrix(0.71, -0.71, -0.71, -0.71, 422.1, 476.6)"></path></g></g><g><clipPath id="clip0x7fa2667ce250"><path d="M 509.8 533.3 L 543.3 518.1 L 513.4 452.3 L 479.9 467.5 Z M 509.8 533.3 "></path></clipPath><g clip-path="url(#clip0x7fa2667ce250)"><path d="M 0.0 0.0 L 31.1 68.6 " fill="none" stroke="#BEBEBE" stroke-width="4.00" transform="matrix(0.91, -0.41, -0.41, -0.91, 511.6, 530.5)"></path></g></g><g><clipPath id="clip0x7fa2667cf2c0"><path d="M 474.2 527.4 L 547.8 527.4 L 547.8 601.0 L 474.2 601.0 Z M 474.2 527.4 "></path></clipPath><g clip-path="url(#clip0x7fa2667cf2c0)"><path d="M 53.4 9.2 C 65.7 21.4 65.7 41.2 53.4 53.4 C 41.2 65.7 21.4 65.7 9.2 53.4 C -3.1 41.2 -3.1 21.4 9.2 9.2 C 21.4 -3.1 41.2 -3.1 53.4 9.2 Z M 53.4 9.2 " fill="none" stroke="#BEBEBE" stroke-width="9.00" transform="matrix(1.00, 0.00, 0.00, -1.00, 479.7, 595.5)"></path></g></g><g><clipPath id="clip0x7fa2667d04b0"><path d="M 474.2 384.6 L 547.8 384.6 L 547.8 458.2 L 474.2 458.2 Z M 474.2 384.6 "></path></clipPath><g clip-path="url(#clip0x7fa2667d04b0)"><path d="M 53.4 9.2 C 65.7 21.4 65.7 41.2 53.4 53.4 C 41.2 65.7 21.4 65.7 9.2 53.4 C -3.1 41.2 -3.1 21.4 9.2 9.2 C 21.4 -3.1 41.2 -3.1 53.4 9.2 Z M 53.4 9.2 " fill="none" stroke="#BEBEBE" stroke-width="9.00" transform="matrix(1.00, 0.00, 0.00, -1.00, 479.7, 452.7)"></path></g></g><g><clipPath id="clip0x7fa2667d1680"><path d="M 358.3 434.6 L 431.9 434.6 L 431.9 508.2 L 358.3 508.2 Z M 358.3 434.6 "></path></clipPath><g clip-path="url(#clip0x7fa2667d1680)"><path d="M 53.4 9.2 C 65.7 21.4 65.7 41.2 53.4 53.4 C 41.2 65.7 21.4 65.7 9.2 53.4 C -3.1 41.2 -3.1 21.4 9.2 9.2 C 21.4 -3.1 41.2 -3.1 53.4 9.2 Z M 53.4 9.2 " fill="none" stroke="#BEBEBE" stroke-width="9.00" transform="matrix(1.00, 0.00, 0.00, -1.00, 363.8, 502.7)"></path></g></g><g><clipPath id="clip0x7fa2667d28e0"><path d="M 590.9 434.6 L 664.5 434.6 L 664.5 508.2 L 590.9 508.2 Z M 590.9 434.6 "></path></clipPath><g clip-path="url(#clip0x7fa2667d28e0)"><path d="M 53.4 9.2 C 65.7 21.4 65.7 41.2 53.4 53.4 C 41.2 65.7 21.4 65.7 9.2 53.4 C -3.1 41.2 -3.1 21.4 9.2 9.2 C 21.4 -3.1 41.2 -3.1 53.4 9.2 Z M 53.4 9.2 " fill="none" stroke="#BEBEBE" stroke-width="9.00" transform="matrix(1.00, 0.00, 0.00, -1.00, 596.4, 502.7)"></path></g></g><g><clipPath id="clip0x7fa2667d3a70"><path d="M 253.1 278.4 L 326.7 278.4 L 326.7 352.0 L 253.1 352.0 Z M 253.1 278.4 "></path></clipPath><g clip-path="url(#clip0x7fa2667d3a70)"><path d="M 53.4 9.2 C 65.7 21.4 65.7 41.2 53.4 53.4 C 41.2 65.7 21.4 65.7 9.2 53.4 C -3.1 41.2 -3.1 21.4 9.2 9.2 C 21.4 -3.1 41.2 -3.1 53.4 9.2 Z M 53.4 9.2 " fill="none" stroke="#BEBEBE" stroke-width="9.00" transform="matrix(1.00, 0.00, 0.00, -1.00, 258.6, 346.5)"></path></g></g><g><clipPath id="clip0x7fa2667d4c70"><path d="M 253.1 167.0 L 326.7 167.0 L 326.7 240.6 L 253.1 240.6 Z M 253.1 167.0 "></path></clipPath><g clip-path="url(#clip0x7fa2667d4c70)"><path d="M 53.4 9.2 C 65.7 21.4 65.7 41.2 53.4 53.4 C 41.2 65.7 21.4 65.7 9.2 53.4 C -3.1 41.2 -3.1 21.4 9.2 9.2 C 21.4 -3.1 41.2 -3.1 53.4 9.2 Z M 53.4 9.2 " fill="none" stroke="#BEBEBE" stroke-width="9.00" transform="matrix(1.00, 0.00, 0.00, -1.00, 258.6, 235.1)"></path></g></g><g><clipPath id="clip0x7fa2667d5e40"><path d="M 364.2 278.4 L 437.8 278.4 L 437.8 352.0 L 364.2 352.0 Z M 364.2 278.4 "></path></clipPath><g clip-path="url(#clip0x7fa2667d5e40)"><path d="M 53.4 9.2 C 65.7 21.4 65.7 41.2 53.4 53.4 C 41.2 65.7 21.4 65.7 9.2 53.4 C -3.1 41.2 -3.1 21.4 9.2 9.2 C 21.4 -3.1 41.2 -3.1 53.4 9.2 Z M 53.4 9.2 " fill="none" stroke="#BEBEBE" stroke-width="9.00" transform="matrix(1.00, 0.00, 0.00, -1.00, 369.7, 346.5)"></path></g></g><g><clipPath id="clip0x7fa2667d7010"><path d="M 475.2 278.4 L 548.8 278.4 L 548.8 352.0 L 475.2 352.0 Z M 475.2 278.4 "></path></clipPath><g clip-path="url(#clip0x7fa2667d7010)"><path d="M 53.4 9.2 C 65.7 21.4 65.7 41.2 53.4 53.4 C 41.2 65.7 21.4 65.7 9.2 53.4 C -3.1 41.2 -3.1 21.4 9.2 9.2 C 21.4 -3.1 41.2 -3.1 53.4 9.2 Z M 53.4 9.2 " fill="none" stroke="#BEBEBE" stroke-width="9.00" transform="matrix(1.00, 0.00, 0.00, -1.00, 480.7, 346.5)"></path></g></g><g><clipPath id="clip0x7fa2667d8280"><path d="M 586.2 278.4 L 659.8 278.4 L 659.8 352.0 L 586.2 352.0 Z M 586.2 278.4 "></path></clipPath><g clip-path="url(#clip0x7fa2667d8280)"><path d="M 53.4 9.2 C 65.7 21.4 65.7 41.2 53.4 53.4 C 41.2 65.7 21.4 65.7 9.2 53.4 C -3.1 41.2 -3.1 21.4 9.2 9.2 C 21.4 -3.1 41.2 -3.1 53.4 9.2 Z M 53.4 9.2 " fill="none" stroke="#BEBEBE" stroke-width="9.00" transform="matrix(1.00, 0.00, 0.00, -1.00, 591.7, 346.5)"></path></g></g><g><clipPath id="clip0x7fa2667d9450"><path d="M 586.2 167.9 L 659.8 167.9 L 659.8 241.5 L 586.2 241.5 Z M 586.2 167.9 "></path></clipPath><g clip-path="url(#clip0x7fa2667d9450)"><path d="M 53.4 9.2 C 65.7 21.4 65.7 41.2 53.4 53.4 C 41.2 65.7 21.4 65.7 9.2 53.4 C -3.1 41.2 -3.1 21.4 9.2 9.2 C 21.4 -3.1 41.2 -3.1 53.4 9.2 Z M 53.4 9.2 " fill="none" stroke="#BEBEBE" stroke-width="9.00" transform="matrix(1.00, 0.00, 0.00, -1.00, 591.7, 236.0)"></path></g></g><g><clipPath id="clip0x7fa2667da620"><path d="M 697.3 278.4 L 770.9 278.4 L 770.9 352.0 L 697.3 352.0 Z M 697.3 278.4 "></path></clipPath><g clip-path="url(#clip0x7fa2667da620)"><path d="M 53.4 9.2 C 65.7 21.4 65.7 41.2 53.4 53.4 C 41.2 65.7 21.4 65.7 9.2 53.4 C -3.1 41.2 -3.1 21.4 9.2 9.2 C 21.4 -3.1 41.2 -3.1 53.4 9.2 Z M 53.4 9.2 " fill="none" stroke="#BEBEBE" stroke-width="9.00" transform="matrix(1.00, 0.00, 0.00, -1.00, 702.8, 346.5)"></path></g></g><g><clipPath id="clip0x7fa2667db840"><path d="M 494.5 398.2 L 498.5 351.5 L 406.6 343.5 L 402.6 390.2 Z M 494.5 398.2 "></path></clipPath><g clip-path="url(#clip0x7fa2667db840)"><path d="M 0.0 0.0 L 41.2 88.5 " fill="none" stroke="#BEBEBE" stroke-width="4.00" transform="matrix(0.09, -1.00, -1.00, -0.09, 492.9, 395.2)"></path></g></g><g><clipPath id="clip0x7fa2667dc810"><path d="M 572.7 565.8 L 532.0 540.7 L 574.3 472.1 L 614.9 497.2 Z M 572.7 565.8 "></path></clipPath><g clip-path="url(#clip0x7fa2667dc810)"><path d="M 42.2 0.0 L 0.0 76.6 " fill="none" stroke="#BEBEBE" stroke-width="4.00" transform="matrix(-0.85, -0.52, 0.52, -0.85, 571.4, 562.6)"></path></g></g><g><clipPath id="clip0x7fa2667dd850"><path d="M 285.8 286.6 L 292.7 286.7 L 293.7 232.5 L 286.8 232.3 Z M 285.8 286.6 "></path></clipPath><g clip-path="url(#clip0x7fa2667dd850)"><path d="M 0.9 0.0 L 0.0 52.2 " fill="none" stroke="#BEBEBE" stroke-width="4.00" transform="matrix(1.00, 0.02, 0.02, -1.00, 288.8, 285.6)"></path></g></g><g><clipPath id="clip0x7fa2667de820"><path d="M 619.5 286.6 L 626.5 286.7 L 627.5 232.5 L 620.5 232.3 Z M 619.5 286.6 "></path></clipPath><g clip-path="url(#clip0x7fa2667de820)"><path d="M 0.9 0.0 L 0.0 52.2 " fill="none" stroke="#BEBEBE" stroke-width="4.00" transform="matrix(1.00, 0.02, 0.02, -1.00, 622.6, 285.6)"></path></g></g><g><clipPath id="clip0x7fa2667df820"><path d="M 528.7 398.2 L 524.7 351.5 L 616.5 343.5 L 620.6 390.2 Z M 528.7 398.2 "></path></clipPath><g clip-path="url(#clip0x7fa2667df820)"><path d="M 0.0 0.0 L 41.2 88.5 " fill="none" stroke="#BEBEBE" stroke-width="4.00" transform="matrix(-0.09, -1.00, 1.00, -0.09, 530.3, 395.2)"></path></g></g><g><clipPath id="clip0x7fa2667e08c0"><path d="M 115.0 208.0 L 85.3 208.0 L 135.3 159.8 L 185.3 208.0 L 156.0 208.0 L 156.0 608.0 L 115.0 608.0 Z M 114.9 207.8 "></path></clipPath><g clip-path="url(#clip0x7fa2667e08c0)"><path d="M 85.3 608.0 L 85.3 159.8 L 185.3 159.8 L 185.3 608.0 Z M 85.3 608.0 " fill="url(#922FD3A0-58B2-4DBE-A2A6-6644330AE8AF)"></path></g></g><g><clipPath id="clip0x7fa2667e2700"><path d="M 185.3 610.7 L 185.3 159.8 L 85.3 159.8 L 85.3 610.7 Z M 185.3 610.7 "></path></clipPath><g clip-path="url(#clip0x7fa2667e2700)"><text xml:space="preserve" font-family="Helvetica-Light,Helvetica" font-size="26.0" fill="#FEFFFF" transform="matrix(0.00, -1.00, -1.00, -0.00, 126.3, 450.2)">O</text><text xml:space="preserve" font-family="Helvetica-Light,Helvetica" font-size="26.0" fill="#FEFFFF" transform="matrix(0.00, -1.00, -1.00, -0.00, 126.3, 430.0)">N</text><text xml:space="preserve" font-family="Helvetica-Light,Helvetica" font-size="26.0" fill="#FEFFFF" transform="matrix(0.00, -1.00, -1.00, -0.00, 126.3, 411.2)">E</text><text xml:space="preserve" font-family="Helvetica-Light,Helvetica" font-size="26.0" fill="#FEFFFF" transform="matrix(0.00, -1.00, -1.00, -0.00, 126.3, 395.3)"> </text><text xml:space="preserve" font-family="Helvetica-Light,Helvetica" font-size="26.0" fill="#FEFFFF" transform="matrix(0.00, -1.00, -1.00, -0.00, 126.3, 388.1)">W</text><text xml:space="preserve" font-family="Helvetica-Light,Helvetica" font-size="26.0" fill="#FEFFFF" transform="matrix(0.00, -1.00, -1.00, -0.00, 126.3, 366.0)">A</text><text xml:space="preserve" font-family="Helvetica-Light,Helvetica" font-size="26.0" fill="#FEFFFF" transform="matrix(0.00, -1.00, -1.00, -0.00, 126.3, 350.5)">Y</text></g></g><g><clipPath id="clip0x7fa2667e77f0"><path d="M 838.7 325.9 L 839.0 442.1 C 839.0 455.8 849.9 467.0 863.6 467.0 L 986.1 467.0 C 999.9 467.0 1011.0 455.8 1011.0 442.1 L 1011.0 325.9 C 1011.0 312.2 999.9 301.0 986.1 301.0 L 863.6 301.0 C 849.9 301.0 838.7 312.2 838.7 325.9 Z M 838.7 325.9 "></path></clipPath><g clip-path="url(#clip0x7fa2667e77f0)"><path d="M 838.7 301.0 L 1011.0 301.0 L 1011.0 467.0 L 838.7 467.0 Z M 838.7 301.0 " fill="url(#A328EF1A-8E82-40CF-99D8-F862DEBE8EE5)"></path></g></g><g><clipPath id="clip0x7fa26653d150"><path d="M 836.2 301.0 L 1013.5 301.0 L 1013.5 467.0 L 836.2 467.0 Z M 836.2 301.0 "></path></clipPath><g clip-path="url(#clip0x7fa26653d150)"><text xml:space="preserve" font-family="Helvetica-Light,Helvetica" font-size="26.0" fill="#FEFFFF" transform="matrix(1.00, 0.00, -0.00, -1.00, 878.6, 374.4)">M</text><text xml:space="preserve" font-family="Helvetica-Light,Helvetica" font-size="26.0" fill="#FEFFFF" transform="matrix(1.00, 0.00, -0.00, -1.00, 900.3, 374.4)">a</text><text xml:space="preserve" font-family="Helvetica-Light,Helvetica" font-size="26.0" fill="#FEFFFF" transform="matrix(1.00, 0.00, -0.00, -1.00, 914.7, 374.4)">i</text><text xml:space="preserve" font-family="Helvetica-Light,Helvetica" font-size="26.0" fill="#FEFFFF" transform="matrix(1.00, 0.00, -0.00, -1.00, 920.5, 374.4)">l</text><text xml:space="preserve" font-family="Helvetica-Light,Helvetica" font-size="26.0" fill="#FEFFFF" transform="matrix(1.00, 0.00, -0.00, -1.00, 926.3, 374.4)">B</text><text xml:space="preserve" font-family="Helvetica-Light,Helvetica" font-size="26.0" fill="#FEFFFF" transform="matrix(1.00, 0.00, -0.00, -1.00, 943.6, 374.4)">o</text><text xml:space="preserve" font-family="Helvetica-Light,Helvetica" font-size="26.0" fill="#FEFFFF" transform="matrix(1.00, 0.00, -0.00, -1.00, 958.1, 374.4)">x</text></g></g><path d="M 0.4 46.0 L 243.2 45.0 L 323.7 8.5 L 325.9 7.4 " fill="none" stroke="#FFF410" stroke-width="5.00" transform="matrix(-1.00, 0.00, 0.00, 1.00, 850.4, 405.5)"></path><path d="M 522.5 423.2 L 508.1 405.5 L 530.9 404.7 Z M 522.5 423.2 " fill="#FFF410"></path></g></svg>