<?xml version="1.0" encoding="UTF-8" standalone="no"?><svg xmlns="http://www.w3.org/2000/svg" xmlns:xlink="http://www.w3.org/1999/xlink" clip-rule="evenodd" stroke-miterlimit="10" viewBox="0 0 1024 768"><desc>SVG generated by Keynote</desc><defs></defs><g transform="matrix(1.00, 0.00, -0.00, -1.00, 0.0, 768.0)"><path d="M 0.0 768.0 L 1024.0 768.0 L 1024.0 0.0 L 0.0 0.0 Z M 0.0 768.0 " fill="#212121"></path><text xml:space="preserve" font-family="Raleway-ExtraLight,Raleway" font-size="80.0" fill="#FEFFFF" transform="matrix(1.00, 0.00, -0.00, -1.00, 316.4, 634.7)">G</text><text xml:space="preserve" font-family="Raleway-ExtraLight,Raleway" font-size="64.0" fill="#FEFFFF" transform="matrix(1.00, 0.00, -0.00, -1.00, 374.6, 634.7)">A</text><text xml:space="preserve" font-family="Raleway-ExtraLight,Raleway" font-size="64.0" fill="#FEFFFF" transform="matrix(1.00, 0.00, -0.00, -1.00, 418.3, 634.7)">M</text><text xml:space="preserve" font-family="Raleway-ExtraLight,Raleway" font-size="64.0" fill="#FEFFFF" transform="matrix(1.00, 0.00, -0.00, -1.00, 474.9, 634.7)">E</text><text xml:space="preserve" font-family="Raleway-ExtraLight,Raleway" font-size="80.0" fill="#FEFFFF" transform="matrix(1.00, 0.00, -0.00, -1.00, 514.4, 634.7)"> </text><text xml:space="preserve" font-family="Raleway-ExtraLight,Raleway" font-size="64.0" fill="#FEFFFF" transform="matrix(1.00, 0.00, -0.00, -1.00, 535.6, 634.7)">L</text><text xml:space="preserve" font-family="Raleway-ExtraLight,Raleway" font-size="64.0" fill="#FEFFFF" transform="matrix(1.00, 0.00, -0.00, -1.00, 570.0, 634.7)">O</text><text xml:space="preserve" font-family="Raleway-ExtraLight,Raleway" font-size="64.0" fill="#FEFFFF" transform="matrix(1.00, 0.00, -0.00, -1.00, 618.9, 634.7)">O</text><text xml:space="preserve" font-family="Raleway-ExtraLight,Raleway" font-size="64.0" fill="#FEFFFF" transform="matrix(1.00, 0.00, -0.00, -1.00, 667.8, 634.7)">P</text></g></svg>