<?xml version="1.0" encoding="UTF-8" standalone="no"?><svg xmlns="http://www.w3.org/2000/svg" xmlns:xlink="http://www.w3.org/1999/xlink" clip-rule="evenodd" stroke-miterlimit="10" viewBox="0 0 1024 768"><desc>SVG generated by Keynote</desc><defs></defs><g transform="matrix(1.00, 0.00, -0.00, -1.00, 0.0, 768.0)"><path d="M 0.0 768.0 L 1024.0 768.0 L 1024.0 0.0 L 0.0 0.0 Z M 0.0 768.0 " fill="#212121"></path><g><clipPath id="clip0x7fa2658f20d0"><path d="M 189.1 496.1 L 300.1 496.1 L 300.1 607.1 L 189.1 607.1 Z M 189.1 496.1 "></path></clipPath><g clip-path="url(#clip0x7fa2658f20d0)"><path d="M 85.4 14.6 C 104.9 34.2 104.9 65.8 85.4 85.4 C 65.8 104.9 34.2 104.9 14.6 85.4 C -4.9 65.8 -4.9 34.2 14.6 14.6 C 34.2 -4.9 65.8 -4.9 85.4 14.6 Z M 85.4 14.6 " fill="none" stroke="#FEFFFE" stroke-width="9.00" transform="matrix(1.00, 0.00, 0.00, -1.00, 194.6, 601.6)"></path></g></g><g><clipPath id="clip0x7fa2658f9700"><path d="M 52.3 303.1 L 163.3 303.1 L 163.3 414.1 L 52.3 414.1 Z M 52.3 303.1 "></path></clipPath><g clip-path="url(#clip0x7fa2658f9700)"><path d="M 85.4 14.6 C 104.9 34.2 104.9 65.8 85.4 85.4 C 65.8 104.9 34.2 104.9 14.6 85.4 C -4.9 65.8 -4.9 34.2 14.6 14.6 C 34.2 -4.9 65.8 -4.9 85.4 14.6 Z M 85.4 14.6 " fill="none" stroke="#FEFFFE" stroke-width="9.00" transform="matrix(1.00, 0.00, 0.00, -1.00, 57.8, 408.6)"></path></g></g><g><clipPath id="clip0x7fa2658fa390"><path d="M 325.8 303.1 L 436.8 303.1 L 436.8 414.1 L 325.8 414.1 Z M 325.8 303.1 "></path></clipPath><g clip-path="url(#clip0x7fa2658fa390)"><path d="M 85.4 14.6 C 104.9 34.2 104.9 65.8 85.4 85.4 C 65.8 104.9 34.2 104.9 14.6 85.4 C -4.9 65.8 -4.9 34.2 14.6 14.6 C 34.2 -4.9 65.8 -4.9 85.4 14.6 Z M 85.4 14.6 " fill="none" stroke="#FEFFFE" stroke-width="9.00" transform="matrix(1.00, 0.00, 0.00, -1.00, 331.3, 408.6)"></path></g></g><g><clipPath id="clip0x7fa2658fb0e0"><path d="M 52.3 114.1 L 163.3 114.1 L 163.3 225.1 L 52.3 225.1 Z M 52.3 114.1 "></path></clipPath><g clip-path="url(#clip0x7fa2658fb0e0)"><path d="M 85.4 14.6 C 104.9 34.2 104.9 65.8 85.4 85.4 C 65.8 104.9 34.2 104.9 14.6 85.4 C -4.9 65.8 -4.9 34.2 14.6 14.6 C 34.2 -4.9 65.8 -4.9 85.4 14.6 Z M 85.4 14.6 " fill="none" stroke="#FEFFFE" stroke-width="9.00" transform="matrix(1.00, 0.00, 0.00, -1.00, 57.8, 219.6)"></path></g></g><g><clipPath id="clip0x7fa265905df0"><path d="M 235.8 113.1 L 346.8 113.1 L 346.8 224.1 L 235.8 224.1 Z M 235.8 113.1 "></path></clipPath><g clip-path="url(#clip0x7fa265905df0)"><path d="M 85.4 14.6 C 104.9 34.2 104.9 65.8 85.4 85.4 C 65.8 104.9 34.2 104.9 14.6 85.4 C -4.9 65.8 -4.9 34.2 14.6 14.6 C 34.2 -4.9 65.8 -4.9 85.4 14.6 Z M 85.4 14.6 " fill="none" stroke="#FEFFFE" stroke-width="9.00" transform="matrix(1.00, 0.00, 0.00, -1.00, 241.3, 218.6)"></path></g></g><g><clipPath id="clip0x7fa265906fc0"><path d="M 419.3 114.1 L 530.3 114.1 L 530.3 225.1 L 419.3 225.1 Z M 419.3 114.1 "></path></clipPath><g clip-path="url(#clip0x7fa265906fc0)"><path d="M 85.4 14.6 C 104.9 34.2 104.9 65.8 85.4 85.4 C 65.8 104.9 34.2 104.9 14.6 85.4 C -4.9 65.8 -4.9 34.2 14.6 14.6 C 34.2 -4.9 65.8 -4.9 85.4 14.6 Z M 85.4 14.6 " fill="none" stroke="#FEFFFE" stroke-width="9.00" transform="matrix(1.00, 0.00, 0.00, -1.00, 424.8, 219.6)"></path></g></g><g><clipPath id="clip0x7fa265908160"><path d="M 136.9 398.5 L 211.9 398.5 L 211.9 514.2 L 136.9 514.2 Z M 136.9 398.5 "></path></clipPath><g clip-path="url(#clip0x7fa265908160)"><path d="M 69.6 0.0 L 0.0 111.6 " fill="none" stroke="#FEFFFE" stroke-width="4.00" transform="matrix(1.00, 0.00, 0.00, -1.00, 139.6, 512.2)"></path></g></g><g><clipPath id="clip0x7fa265909100"><path d="M 280.8 517.2 L 362.1 512.6 L 355.5 395.5 L 274.2 400.1 Z M 280.8 517.2 "></path></clipPath><g clip-path="url(#clip0x7fa265909100)"><path d="M 0.0 0.0 L 76.1 113.0 " fill="none" stroke="#FEFFFE" stroke-width="4.00" transform="matrix(1.00, -0.06, -0.06, -1.00, 283.3, 514.9)"></path></g></g><g><clipPath id="clip0x7fa2659163f0"><path d="M 100.9 306.4 L 108.4 306.5 L 110.0 219.3 L 102.5 219.1 Z M 100.9 306.4 "></path></clipPath><g clip-path="url(#clip0x7fa2659163f0)"><path d="M 1.5 0.0 L 0.0 85.2 " fill="none" stroke="#FEFFFE" stroke-width="4.00" transform="matrix(1.00, 0.02, 0.02, -1.00, 103.9, 305.4)"></path></g></g><g><clipPath id="clip0x7fa26591cd70"><path d="M 312.2 210.5 L 362.5 210.5 L 362.5 312.4 L 312.2 312.4 Z M 312.2 210.5 "></path></clipPath><g clip-path="url(#clip0x7fa26591cd70)"><path d="M 44.7 0.0 L 0.0 98.3 " fill="none" stroke="#FEFFFE" stroke-width="4.00" transform="matrix(1.00, 0.00, 0.00, -1.00, 315.0, 310.6)"></path></g></g><g><clipPath id="clip0x7fa26591de30"><path d="M 403.4 210.5 L 454.0 210.5 L 454.0 313.2 L 403.4 313.2 Z M 403.4 210.5 "></path></clipPath><g clip-path="url(#clip0x7fa26591de30)"><path d="M 0.0 0.0 L 45.0 99.1 " fill="none" stroke="#FEFFFE" stroke-width="4.00" transform="matrix(1.00, 0.00, 0.00, -1.00, 406.2, 311.3)"></path></g></g><g><clipPath id="clip0x7fa26591c6e0"><path d="M 222.1 518.5 L 267.0 518.5 L 267.0 583.7 L 222.1 583.7 Z M 222.1 518.5 "></path></clipPath><g clip-path="url(#clip0x7fa26591c6e0)"><text xml:space="preserve" font-family="HelveticaNeue-Light,Helvetica Neue" font-size="36.0" fill="#FEFFFF" transform="matrix(1.00, 0.00, -0.00, -1.00, 233.2, 537.8)">A</text></g></g><g><clipPath id="clip0x7fa265918d30"><path d="M 84.3 325.5 L 130.6 325.5 L 130.6 390.7 L 84.3 390.7 Z M 84.3 325.5 "></path></clipPath><g clip-path="url(#clip0x7fa265918d30)"><text xml:space="preserve" font-family="HelveticaNeue-Light,Helvetica Neue" font-size="36.0" fill="#FEFFFF" transform="matrix(1.00, 0.00, -0.00, -1.00, 95.4, 344.8)">B</text></g></g><g><clipPath id="clip0x7fa2659293c0"><path d="M 357.5 327.0 L 405.1 327.0 L 405.1 392.2 L 357.5 392.2 Z M 357.5 327.0 "></path></clipPath><g clip-path="url(#clip0x7fa2659293c0)"><text xml:space="preserve" font-family="HelveticaNeue-Light,Helvetica Neue" font-size="36.0" fill="#FEFFFF" transform="matrix(1.00, 0.00, -0.00, -1.00, 368.7, 346.3)">C</text></g></g><g><clipPath id="clip0x7fa265927fd0"><path d="M 74.3 136.5 L 140.6 136.5 L 140.6 201.7 L 74.3 201.7 Z M 74.3 136.5 "></path></clipPath><g clip-path="url(#clip0x7fa265927fd0)"><text xml:space="preserve" font-family="HelveticaNeue-Light,Helvetica Neue" font-size="36.0" fill="#FEFFFF" transform="matrix(1.00, 0.00, -0.00, -1.00, 85.4, 155.8)">d</text><text xml:space="preserve" font-family="HelveticaNeue-Light,Helvetica Neue" font-size="36.0" fill="#FEFFFF" transform="matrix(1.00, 0.00, -0.00, -1.00, 106.1, 155.8)">i</text><text xml:space="preserve" font-family="HelveticaNeue-Light,Helvetica Neue" font-size="36.0" fill="#FEFFFF" transform="matrix(1.00, 0.00, -0.00, -1.00, 112.8, 155.8)">v</text></g></g><g><clipPath id="clip0x7fa2659317e0"><path d="M 258.2 136.5 L 324.4 136.5 L 324.4 201.7 L 258.2 201.7 Z M 258.2 136.5 "></path></clipPath><g clip-path="url(#clip0x7fa2659317e0)"><text xml:space="preserve" font-family="HelveticaNeue-Light,Helvetica Neue" font-size="36.0" fill="#FEFFFF" transform="matrix(1.00, 0.00, -0.00, -1.00, 269.3, 155.8)">d</text><text xml:space="preserve" font-family="HelveticaNeue-Light,Helvetica Neue" font-size="36.0" fill="#FEFFFF" transform="matrix(1.00, 0.00, -0.00, -1.00, 290.0, 155.8)">i</text><text xml:space="preserve" font-family="HelveticaNeue-Light,Helvetica Neue" font-size="36.0" fill="#FEFFFF" transform="matrix(1.00, 0.00, -0.00, -1.00, 296.6, 155.8)">v</text></g></g><g><clipPath id="clip0x7fa2659338b0"><path d="M 441.7 135.5 L 507.9 135.5 L 507.9 200.7 L 441.7 200.7 Z M 441.7 135.5 "></path></clipPath><g clip-path="url(#clip0x7fa2659338b0)"><text xml:space="preserve" font-family="HelveticaNeue-Light,Helvetica Neue" font-size="36.0" fill="#FEFFFF" transform="matrix(1.00, 0.00, -0.00, -1.00, 452.8, 154.8)">d</text><text xml:space="preserve" font-family="HelveticaNeue-Light,Helvetica Neue" font-size="36.0" fill="#FEFFFF" transform="matrix(1.00, 0.00, -0.00, -1.00, 473.5, 154.8)">i</text><text xml:space="preserve" font-family="HelveticaNeue-Light,Helvetica Neue" font-size="36.0" fill="#FEFFFF" transform="matrix(1.00, 0.00, -0.00, -1.00, 480.1, 154.8)">v</text></g></g><text xml:space="preserve" font-family="HelveticaNeue-Light,Helvetica Neue" font-size="36.0" fill="#FEFFFF" transform="matrix(1.00, 0.00, -0.00, -1.00, 349.3, 683.1)">R</text><text xml:space="preserve" font-family="HelveticaNeue-Light,Helvetica Neue" font-size="36.0" fill="#FEFFFF" transform="matrix(1.00, 0.00, -0.00, -1.00, 373.3, 683.1)">e</text><text xml:space="preserve" font-family="HelveticaNeue-Light,Helvetica Neue" font-size="36.0" fill="#FEFFFF" transform="matrix(1.00, 0.00, -0.00, -1.00, 392.0, 683.1)">a</text><text xml:space="preserve" font-family="HelveticaNeue-Light,Helvetica Neue" font-size="36.0" fill="#FEFFFF" transform="matrix(1.00, 0.00, -0.00, -1.00, 410.7, 683.1)">c</text><text xml:space="preserve" font-family="HelveticaNeue-Light,Helvetica Neue" font-size="36.0" fill="#FEFFFF" transform="matrix(1.00, 0.00, -0.00, -1.00, 429.4, 683.1)">t</text><text xml:space="preserve" font-family="HelveticaNeue-Light,Helvetica Neue" font-size="36.0" fill="#FEFFFF" transform="matrix(1.00, 0.00, -0.00, -1.00, 440.0, 683.1)">.</text><text xml:space="preserve" font-family="HelveticaNeue-Light,Helvetica Neue" font-size="36.0" fill="#FEFFFF" transform="matrix(1.00, 0.00, -0.00, -1.00, 450.0, 683.1)">r</text><text xml:space="preserve" font-family="HelveticaNeue-Light,Helvetica Neue" font-size="36.0" fill="#FEFFFF" transform="matrix(1.00, 0.00, -0.00, -1.00, 460.7, 683.1)">e</text><text xml:space="preserve" font-family="HelveticaNeue-Light,Helvetica Neue" font-size="36.0" fill="#FEFFFF" transform="matrix(1.00, 0.00, -0.00, -1.00, 479.4, 683.1)">n</text><text xml:space="preserve" font-family="HelveticaNeue-Light,Helvetica Neue" font-size="36.0" fill="#FEFFFF" transform="matrix(1.00, 0.00, -0.00, -1.00, 498.8, 683.1)">d</text><text xml:space="preserve" font-family="HelveticaNeue-Light,Helvetica Neue" font-size="36.0" fill="#FEFFFF" transform="matrix(1.00, 0.00, -0.00, -1.00, 519.4, 683.1)">e</text><text xml:space="preserve" font-family="HelveticaNeue-Light,Helvetica Neue" font-size="36.0" fill="#FEFFFF" transform="matrix(1.00, 0.00, -0.00, -1.00, 538.1, 683.1)">r</text><text xml:space="preserve" font-family="HelveticaNeue-Light,Helvetica Neue" font-size="36.0" fill="#FEFFFF" transform="matrix(1.00, 0.00, -0.00, -1.00, 549.4, 683.1)">(</text><text xml:space="preserve" font-family="HelveticaNeue-Light,Helvetica Neue" font-size="36.0" fill="#FEFFFF" transform="matrix(1.00, 0.00, -0.00, -1.00, 558.1, 683.1)"> </text><text xml:space="preserve" font-family="HelveticaNeue-Light,Helvetica Neue" font-size="36.0" fill="#FEFFFF" transform="matrix(1.00, 0.00, -0.00, -1.00, 568.1, 683.1)">&lt;</text><text xml:space="preserve" font-family="HelveticaNeue-Light,Helvetica Neue" font-size="36.0" fill="#FEFFFF" transform="matrix(1.00, 0.00, -0.00, -1.00, 589.7, 683.1)">A</text><text xml:space="preserve" font-family="HelveticaNeue-Light,Helvetica Neue" font-size="36.0" fill="#FEFFFF" transform="matrix(1.00, 0.00, -0.00, -1.00, 612.4, 683.1)"> </text><text xml:space="preserve" font-family="HelveticaNeue-Light,Helvetica Neue" font-size="36.0" fill="#FEFFFF" transform="matrix(1.00, 0.00, -0.00, -1.00, 622.4, 683.1)">/</text><text xml:space="preserve" font-family="HelveticaNeue-Light,Helvetica Neue" font-size="36.0" fill="#FEFFFF" transform="matrix(1.00, 0.00, -0.00, -1.00, 634.4, 683.1)">&gt;</text><text xml:space="preserve" font-family="HelveticaNeue-Light,Helvetica Neue" font-size="36.0" fill="#FEFFFF" transform="matrix(1.00, 0.00, -0.00, -1.00, 656.0, 683.1)"> </text><text xml:space="preserve" font-family="HelveticaNeue-Light,Helvetica Neue" font-size="36.0" fill="#FEFFFF" transform="matrix(1.00, 0.00, -0.00, -1.00, 666.0, 683.1)">)</text><g><clipPath id="clip0x7fa265943d10"><path d="M 630.6 543.0 L 895.6 543.0 L 895.6 608.2 L 630.6 608.2 Z M 630.6 543.0 "></path></clipPath><g clip-path="url(#clip0x7fa265943d10)"><text xml:space="preserve" font-family="HelveticaNeue-Light,Helvetica Neue" font-size="36.0" fill="#FEFFFF" transform="matrix(1.00, 0.00, -0.00, -1.00, 641.7, 562.3)">&lt;</text><text xml:space="preserve" font-family="HelveticaNeue-Light,Helvetica Neue" font-size="36.0" fill="#FEFFFF" transform="matrix(1.00, 0.00, -0.00, -1.00, 663.3, 562.3)">d</text><text xml:space="preserve" font-family="HelveticaNeue-Light,Helvetica Neue" font-size="36.0" fill="#FEFFFF" transform="matrix(1.00, 0.00, -0.00, -1.00, 683.9, 562.3)">i</text><text xml:space="preserve" font-family="HelveticaNeue-Light,Helvetica Neue" font-size="36.0" fill="#FEFFFF" transform="matrix(1.00, 0.00, -0.00, -1.00, 690.6, 562.3)">v</text><text xml:space="preserve" font-family="HelveticaNeue-Light,Helvetica Neue" font-size="36.0" fill="#FEFFFF" transform="matrix(1.00, 0.00, -0.00, -1.00, 707.3, 562.3)"> </text><text xml:space="preserve" font-family="HelveticaNeue-Light,Helvetica Neue" font-size="36.0" fill="#FEFFFF" transform="matrix(1.00, 0.00, -0.00, -1.00, 717.3, 562.3)">c</text><text xml:space="preserve" font-family="HelveticaNeue-Light,Helvetica Neue" font-size="36.0" fill="#FEFFFF" transform="matrix(1.00, 0.00, -0.00, -1.00, 736.0, 562.3)">l</text><text xml:space="preserve" font-family="HelveticaNeue-Light,Helvetica Neue" font-size="36.0" fill="#FEFFFF" transform="matrix(1.00, 0.00, -0.00, -1.00, 742.6, 562.3)">a</text><text xml:space="preserve" font-family="HelveticaNeue-Light,Helvetica Neue" font-size="36.0" fill="#FEFFFF" transform="matrix(1.00, 0.00, -0.00, -1.00, 761.3, 562.3)">s</text><text xml:space="preserve" font-family="HelveticaNeue-Light,Helvetica Neue" font-size="36.0" fill="#FEFFFF" transform="matrix(1.00, 0.00, -0.00, -1.00, 778.6, 562.3)">s</text><text xml:space="preserve" font-family="HelveticaNeue-Light,Helvetica Neue" font-size="36.0" fill="#FEFFFF" transform="matrix(1.00, 0.00, -0.00, -1.00, 795.9, 562.3)">=</text><text xml:space="preserve" font-family="HelveticaNeue-Light,Helvetica Neue" font-size="36.0" fill="#FEFFFF" transform="matrix(1.00, 0.00, -0.00, -1.00, 817.5, 562.3)">“</text><text xml:space="preserve" font-family="HelveticaNeue-Light,Helvetica Neue" font-size="36.0" fill="#FEFFFF" transform="matrix(1.00, 0.00, -0.00, -1.00, 830.9, 562.3)">a</text><text xml:space="preserve" font-family="HelveticaNeue-Light,Helvetica Neue" font-size="36.0" fill="#FEFFFF" transform="matrix(1.00, 0.00, -0.00, -1.00, 849.5, 562.3)">”</text><text xml:space="preserve" font-family="HelveticaNeue-Light,Helvetica Neue" font-size="36.0" fill="#FEFFFF" transform="matrix(1.00, 0.00, -0.00, -1.00, 862.9, 562.3)">&gt;</text></g></g><g><clipPath id="clip0x7fa26594f060"><path d="M 631.3 106.4 L 752.7 106.4 L 752.7 171.6 L 631.3 171.6 Z M 631.3 106.4 "></path></clipPath><g clip-path="url(#clip0x7fa26594f060)"><text xml:space="preserve" font-family="HelveticaNeue-Light,Helvetica Neue" font-size="36.0" fill="#FEFFFF" transform="matrix(1.00, 0.00, -0.00, -1.00, 642.4, 125.7)">&lt;</text><text xml:space="preserve" font-family="HelveticaNeue-Light,Helvetica Neue" font-size="36.0" fill="#FEFFFF" transform="matrix(1.00, 0.00, -0.00, -1.00, 664.0, 125.7)">/</text><text xml:space="preserve" font-family="HelveticaNeue-Light,Helvetica Neue" font-size="36.0" fill="#FEFFFF" transform="matrix(1.00, 0.00, -0.00, -1.00, 676.0, 125.7)">d</text><text xml:space="preserve" font-family="HelveticaNeue-Light,Helvetica Neue" font-size="36.0" fill="#FEFFFF" transform="matrix(1.00, 0.00, -0.00, -1.00, 696.7, 125.7)">i</text><text xml:space="preserve" font-family="HelveticaNeue-Light,Helvetica Neue" font-size="36.0" fill="#FEFFFF" transform="matrix(1.00, 0.00, -0.00, -1.00, 703.3, 125.7)">v</text><text xml:space="preserve" font-family="HelveticaNeue-Light,Helvetica Neue" font-size="36.0" fill="#FEFFFF" transform="matrix(1.00, 0.00, -0.00, -1.00, 720.0, 125.7)">&gt;</text></g></g><g><clipPath id="clip0x7fa265950420"><path d="M 728.3 433.8 L 849.7 433.8 L 849.7 499.1 L 728.3 499.1 Z M 728.3 433.8 "></path></clipPath><g clip-path="url(#clip0x7fa265950420)"><text xml:space="preserve" font-family="HelveticaNeue-Light,Helvetica Neue" font-size="36.0" fill="#FEFFFF" transform="matrix(1.00, 0.00, -0.00, -1.00, 739.4, 453.2)">&lt;</text><text xml:space="preserve" font-family="HelveticaNeue-Light,Helvetica Neue" font-size="36.0" fill="#FEFFFF" transform="matrix(1.00, 0.00, -0.00, -1.00, 761.0, 453.2)">d</text><text xml:space="preserve" font-family="HelveticaNeue-Light,Helvetica Neue" font-size="36.0" fill="#FEFFFF" transform="matrix(1.00, 0.00, -0.00, -1.00, 781.7, 453.2)">i</text><text xml:space="preserve" font-family="HelveticaNeue-Light,Helvetica Neue" font-size="36.0" fill="#FEFFFF" transform="matrix(1.00, 0.00, -0.00, -1.00, 788.3, 453.2)">v</text><text xml:space="preserve" font-family="HelveticaNeue-Light,Helvetica Neue" font-size="36.0" fill="#FEFFFF" transform="matrix(1.00, 0.00, -0.00, -1.00, 805.0, 453.2)">/</text><text xml:space="preserve" font-family="HelveticaNeue-Light,Helvetica Neue" font-size="36.0" fill="#FEFFFF" transform="matrix(1.00, 0.00, -0.00, -1.00, 817.0, 453.2)">&gt;</text></g></g><g><clipPath id="clip0x7fa2659594b0"><path d="M 728.3 270.1 L 849.7 270.1 L 849.7 335.4 L 728.3 335.4 Z M 728.3 270.1 "></path></clipPath><g clip-path="url(#clip0x7fa2659594b0)"><text xml:space="preserve" font-family="HelveticaNeue-Light,Helvetica Neue" font-size="36.0" fill="#FEFFFF" transform="matrix(1.00, 0.00, -0.00, -1.00, 739.4, 289.5)">&lt;</text><text xml:space="preserve" font-family="HelveticaNeue-Light,Helvetica Neue" font-size="36.0" fill="#FEFFFF" transform="matrix(1.00, 0.00, -0.00, -1.00, 761.0, 289.5)">d</text><text xml:space="preserve" font-family="HelveticaNeue-Light,Helvetica Neue" font-size="36.0" fill="#FEFFFF" transform="matrix(1.00, 0.00, -0.00, -1.00, 781.7, 289.5)">i</text><text xml:space="preserve" font-family="HelveticaNeue-Light,Helvetica Neue" font-size="36.0" fill="#FEFFFF" transform="matrix(1.00, 0.00, -0.00, -1.00, 788.3, 289.5)">v</text><text xml:space="preserve" font-family="HelveticaNeue-Light,Helvetica Neue" font-size="36.0" fill="#FEFFFF" transform="matrix(1.00, 0.00, -0.00, -1.00, 805.0, 289.5)">/</text><text xml:space="preserve" font-family="HelveticaNeue-Light,Helvetica Neue" font-size="36.0" fill="#FEFFFF" transform="matrix(1.00, 0.00, -0.00, -1.00, 817.0, 289.5)">&gt;</text></g></g><g><clipPath id="clip0x7fa26595c840"><path d="M 680.2 488.4 L 947.2 488.4 L 947.2 553.6 L 680.2 553.6 Z M 680.2 488.4 "></path></clipPath><g clip-path="url(#clip0x7fa26595c840)"><text xml:space="preserve" font-family="HelveticaNeue-Light,Helvetica Neue" font-size="36.0" fill="#FEFFFF" transform="matrix(1.00, 0.00, -0.00, -1.00, 691.3, 507.7)">&lt;</text><text xml:space="preserve" font-family="HelveticaNeue-Light,Helvetica Neue" font-size="36.0" fill="#FEFFFF" transform="matrix(1.00, 0.00, -0.00, -1.00, 712.9, 507.7)">d</text><text xml:space="preserve" font-family="HelveticaNeue-Light,Helvetica Neue" font-size="36.0" fill="#FEFFFF" transform="matrix(1.00, 0.00, -0.00, -1.00, 733.6, 507.7)">i</text><text xml:space="preserve" font-family="HelveticaNeue-Light,Helvetica Neue" font-size="36.0" fill="#FEFFFF" transform="matrix(1.00, 0.00, -0.00, -1.00, 740.2, 507.7)">v</text><text xml:space="preserve" font-family="HelveticaNeue-Light,Helvetica Neue" font-size="36.0" fill="#FEFFFF" transform="matrix(1.00, 0.00, -0.00, -1.00, 756.9, 507.7)"> </text><text xml:space="preserve" font-family="HelveticaNeue-Light,Helvetica Neue" font-size="36.0" fill="#FEFFFF" transform="matrix(1.00, 0.00, -0.00, -1.00, 766.9, 507.7)">c</text><text xml:space="preserve" font-family="HelveticaNeue-Light,Helvetica Neue" font-size="36.0" fill="#FEFFFF" transform="matrix(1.00, 0.00, -0.00, -1.00, 785.6, 507.7)">l</text><text xml:space="preserve" font-family="HelveticaNeue-Light,Helvetica Neue" font-size="36.0" fill="#FEFFFF" transform="matrix(1.00, 0.00, -0.00, -1.00, 792.3, 507.7)">a</text><text xml:space="preserve" font-family="HelveticaNeue-Light,Helvetica Neue" font-size="36.0" fill="#FEFFFF" transform="matrix(1.00, 0.00, -0.00, -1.00, 810.9, 507.7)">s</text><text xml:space="preserve" font-family="HelveticaNeue-Light,Helvetica Neue" font-size="36.0" fill="#FEFFFF" transform="matrix(1.00, 0.00, -0.00, -1.00, 828.3, 507.7)">s</text><text xml:space="preserve" font-family="HelveticaNeue-Light,Helvetica Neue" font-size="36.0" fill="#FEFFFF" transform="matrix(1.00, 0.00, -0.00, -1.00, 845.6, 507.7)">=</text><text xml:space="preserve" font-family="HelveticaNeue-Light,Helvetica Neue" font-size="36.0" fill="#FEFFFF" transform="matrix(1.00, 0.00, -0.00, -1.00, 867.2, 507.7)">“</text><text xml:space="preserve" font-family="HelveticaNeue-Light,Helvetica Neue" font-size="36.0" fill="#FEFFFF" transform="matrix(1.00, 0.00, -0.00, -1.00, 880.5, 507.7)">b</text><text xml:space="preserve" font-family="HelveticaNeue-Light,Helvetica Neue" font-size="36.0" fill="#FEFFFF" transform="matrix(1.00, 0.00, -0.00, -1.00, 901.2, 507.7)">”</text><text xml:space="preserve" font-family="HelveticaNeue-Light,Helvetica Neue" font-size="36.0" fill="#FEFFFF" transform="matrix(1.00, 0.00, -0.00, -1.00, 914.5, 507.7)">&gt;</text></g></g><g><clipPath id="clip0x7fa265963070"><path d="M 674.1 379.3 L 795.5 379.3 L 795.5 444.5 L 674.1 444.5 Z M 674.1 379.3 "></path></clipPath><g clip-path="url(#clip0x7fa265963070)"><text xml:space="preserve" font-family="HelveticaNeue-Light,Helvetica Neue" font-size="36.0" fill="#FEFFFF" transform="matrix(1.00, 0.00, -0.00, -1.00, 685.2, 398.6)">&lt;</text><text xml:space="preserve" font-family="HelveticaNeue-Light,Helvetica Neue" font-size="36.0" fill="#FEFFFF" transform="matrix(1.00, 0.00, -0.00, -1.00, 706.8, 398.6)">/</text><text xml:space="preserve" font-family="HelveticaNeue-Light,Helvetica Neue" font-size="36.0" fill="#FEFFFF" transform="matrix(1.00, 0.00, -0.00, -1.00, 718.8, 398.6)">d</text><text xml:space="preserve" font-family="HelveticaNeue-Light,Helvetica Neue" font-size="36.0" fill="#FEFFFF" transform="matrix(1.00, 0.00, -0.00, -1.00, 739.5, 398.6)">i</text><text xml:space="preserve" font-family="HelveticaNeue-Light,Helvetica Neue" font-size="36.0" fill="#FEFFFF" transform="matrix(1.00, 0.00, -0.00, -1.00, 746.1, 398.6)">v</text><text xml:space="preserve" font-family="HelveticaNeue-Light,Helvetica Neue" font-size="36.0" fill="#FEFFFF" transform="matrix(1.00, 0.00, -0.00, -1.00, 762.8, 398.6)">&gt;</text></g></g><g><clipPath id="clip0x7fa2659661c0"><path d="M 684.7 324.7 L 949.7 324.7 L 949.7 389.9 L 684.7 389.9 Z M 684.7 324.7 "></path></clipPath><g clip-path="url(#clip0x7fa2659661c0)"><text xml:space="preserve" font-family="HelveticaNeue-Light,Helvetica Neue" font-size="36.0" fill="#FEFFFF" transform="matrix(1.00, 0.00, -0.00, -1.00, 695.8, 344.0)">&lt;</text><text xml:space="preserve" font-family="HelveticaNeue-Light,Helvetica Neue" font-size="36.0" fill="#FEFFFF" transform="matrix(1.00, 0.00, -0.00, -1.00, 717.4, 344.0)">d</text><text xml:space="preserve" font-family="HelveticaNeue-Light,Helvetica Neue" font-size="36.0" fill="#FEFFFF" transform="matrix(1.00, 0.00, -0.00, -1.00, 738.1, 344.0)">i</text><text xml:space="preserve" font-family="HelveticaNeue-Light,Helvetica Neue" font-size="36.0" fill="#FEFFFF" transform="matrix(1.00, 0.00, -0.00, -1.00, 744.7, 344.0)">v</text><text xml:space="preserve" font-family="HelveticaNeue-Light,Helvetica Neue" font-size="36.0" fill="#FEFFFF" transform="matrix(1.00, 0.00, -0.00, -1.00, 761.4, 344.0)"> </text><text xml:space="preserve" font-family="HelveticaNeue-Light,Helvetica Neue" font-size="36.0" fill="#FEFFFF" transform="matrix(1.00, 0.00, -0.00, -1.00, 771.4, 344.0)">c</text><text xml:space="preserve" font-family="HelveticaNeue-Light,Helvetica Neue" font-size="36.0" fill="#FEFFFF" transform="matrix(1.00, 0.00, -0.00, -1.00, 790.1, 344.0)">l</text><text xml:space="preserve" font-family="HelveticaNeue-Light,Helvetica Neue" font-size="36.0" fill="#FEFFFF" transform="matrix(1.00, 0.00, -0.00, -1.00, 796.7, 344.0)">a</text><text xml:space="preserve" font-family="HelveticaNeue-Light,Helvetica Neue" font-size="36.0" fill="#FEFFFF" transform="matrix(1.00, 0.00, -0.00, -1.00, 815.4, 344.0)">s</text><text xml:space="preserve" font-family="HelveticaNeue-Light,Helvetica Neue" font-size="36.0" fill="#FEFFFF" transform="matrix(1.00, 0.00, -0.00, -1.00, 832.7, 344.0)">s</text><text xml:space="preserve" font-family="HelveticaNeue-Light,Helvetica Neue" font-size="36.0" fill="#FEFFFF" transform="matrix(1.00, 0.00, -0.00, -1.00, 850.0, 344.0)">=</text><text xml:space="preserve" font-family="HelveticaNeue-Light,Helvetica Neue" font-size="36.0" fill="#FEFFFF" transform="matrix(1.00, 0.00, -0.00, -1.00, 871.6, 344.0)">“</text><text xml:space="preserve" font-family="HelveticaNeue-Light,Helvetica Neue" font-size="36.0" fill="#FEFFFF" transform="matrix(1.00, 0.00, -0.00, -1.00, 885.0, 344.0)">c</text><text xml:space="preserve" font-family="HelveticaNeue-Light,Helvetica Neue" font-size="36.0" fill="#FEFFFF" transform="matrix(1.00, 0.00, -0.00, -1.00, 903.7, 344.0)">”</text><text xml:space="preserve" font-family="HelveticaNeue-Light,Helvetica Neue" font-size="36.0" fill="#FEFFFF" transform="matrix(1.00, 0.00, -0.00, -1.00, 917.0, 344.0)">&gt;</text></g></g><g><clipPath id="clip0x7fa26596c9f0"><path d="M 675.9 161.0 L 797.3 161.0 L 797.3 226.2 L 675.9 226.2 Z M 675.9 161.0 "></path></clipPath><g clip-path="url(#clip0x7fa26596c9f0)"><text xml:space="preserve" font-family="HelveticaNeue-Light,Helvetica Neue" font-size="36.0" fill="#FEFFFF" transform="matrix(1.00, 0.00, -0.00, -1.00, 687.0, 180.3)">&lt;</text><text xml:space="preserve" font-family="HelveticaNeue-Light,Helvetica Neue" font-size="36.0" fill="#FEFFFF" transform="matrix(1.00, 0.00, -0.00, -1.00, 708.6, 180.3)">/</text><text xml:space="preserve" font-family="HelveticaNeue-Light,Helvetica Neue" font-size="36.0" fill="#FEFFFF" transform="matrix(1.00, 0.00, -0.00, -1.00, 720.6, 180.3)">d</text><text xml:space="preserve" font-family="HelveticaNeue-Light,Helvetica Neue" font-size="36.0" fill="#FEFFFF" transform="matrix(1.00, 0.00, -0.00, -1.00, 741.2, 180.3)">i</text><text xml:space="preserve" font-family="HelveticaNeue-Light,Helvetica Neue" font-size="36.0" fill="#FEFFFF" transform="matrix(1.00, 0.00, -0.00, -1.00, 747.9, 180.3)">v</text><text xml:space="preserve" font-family="HelveticaNeue-Light,Helvetica Neue" font-size="36.0" fill="#FEFFFF" transform="matrix(1.00, 0.00, -0.00, -1.00, 764.6, 180.3)">&gt;</text></g></g><g><clipPath id="clip0x7fa26596fb40"><path d="M 728.3 215.5 L 849.7 215.5 L 849.7 280.8 L 728.3 280.8 Z M 728.3 215.5 "></path></clipPath><g clip-path="url(#clip0x7fa26596fb40)"><text xml:space="preserve" font-family="HelveticaNeue-Light,Helvetica Neue" font-size="36.0" fill="#FEFFFF" transform="matrix(1.00, 0.00, -0.00, -1.00, 739.4, 234.9)">&lt;</text><text xml:space="preserve" font-family="HelveticaNeue-Light,Helvetica Neue" font-size="36.0" fill="#FEFFFF" transform="matrix(1.00, 0.00, -0.00, -1.00, 761.0, 234.9)">d</text><text xml:space="preserve" font-family="HelveticaNeue-Light,Helvetica Neue" font-size="36.0" fill="#FEFFFF" transform="matrix(1.00, 0.00, -0.00, -1.00, 781.7, 234.9)">i</text><text xml:space="preserve" font-family="HelveticaNeue-Light,Helvetica Neue" font-size="36.0" fill="#FEFFFF" transform="matrix(1.00, 0.00, -0.00, -1.00, 788.3, 234.9)">v</text><text xml:space="preserve" font-family="HelveticaNeue-Light,Helvetica Neue" font-size="36.0" fill="#FEFFFF" transform="matrix(1.00, 0.00, -0.00, -1.00, 805.0, 234.9)">/</text><text xml:space="preserve" font-family="HelveticaNeue-Light,Helvetica Neue" font-size="36.0" fill="#FEFFFF" transform="matrix(1.00, 0.00, -0.00, -1.00, 817.0, 234.9)">&gt;</text></g></g><path d="M 1.5 0.0 L 0.0 85.2 " fill="none" stroke="#FEFFFE" stroke-width="4.00" transform="matrix(1.00, 0.02, 0.02, -1.00, 103.9, 305.4)"></path><text xml:space="preserve" font-family="HelveticaNeue-Light,Helvetica Neue" font-size="36.0" fill="#FEFFFF" transform="matrix(1.00, 0.00, -0.00, -1.00, 233.2, 537.8)">A</text><text xml:space="preserve" font-family="HelveticaNeue-Light,Helvetica Neue" font-size="36.0" fill="#FEFFFF" transform="matrix(1.00, 0.00, -0.00, -1.00, 95.4, 344.8)">B</text><text xml:space="preserve" font-family="HelveticaNeue-Light,Helvetica Neue" font-size="36.0" fill="#FEFFFF" transform="matrix(1.00, 0.00, -0.00, -1.00, 368.7, 346.3)">C</text><text xml:space="preserve" font-family="HelveticaNeue-Light,Helvetica Neue" font-size="36.0" fill="#FEFFFF" transform="matrix(1.00, 0.00, -0.00, -1.00, 85.4, 155.8)">d</text><text xml:space="preserve" font-family="HelveticaNeue-Light,Helvetica Neue" font-size="36.0" fill="#FEFFFF" transform="matrix(1.00, 0.00, -0.00, -1.00, 106.1, 155.8)">i</text><text xml:space="preserve" font-family="HelveticaNeue-Light,Helvetica Neue" font-size="36.0" fill="#FEFFFF" transform="matrix(1.00, 0.00, -0.00, -1.00, 112.8, 155.8)">v</text><text xml:space="preserve" font-family="HelveticaNeue-Light,Helvetica Neue" font-size="36.0" fill="#FEFFFF" transform="matrix(1.00, 0.00, -0.00, -1.00, 269.3, 155.8)">d</text><text xml:space="preserve" font-family="HelveticaNeue-Light,Helvetica Neue" font-size="36.0" fill="#FEFFFF" transform="matrix(1.00, 0.00, -0.00, -1.00, 290.0, 155.8)">i</text><text xml:space="preserve" font-family="HelveticaNeue-Light,Helvetica Neue" font-size="36.0" fill="#FEFFFF" transform="matrix(1.00, 0.00, -0.00, -1.00, 296.6, 155.8)">v</text><text xml:space="preserve" font-family="HelveticaNeue-Light,Helvetica Neue" font-size="36.0" fill="#FEFFFF" transform="matrix(1.00, 0.00, -0.00, -1.00, 452.8, 154.8)">d</text><text xml:space="preserve" font-family="HelveticaNeue-Light,Helvetica Neue" font-size="36.0" fill="#FEFFFF" transform="matrix(1.00, 0.00, -0.00, -1.00, 473.5, 154.8)">i</text><text xml:space="preserve" font-family="HelveticaNeue-Light,Helvetica Neue" font-size="36.0" fill="#FEFFFF" transform="matrix(1.00, 0.00, -0.00, -1.00, 480.1, 154.8)">v</text></g></svg>