<?xml version="1.0" encoding="UTF-8" standalone="no"?><svg xmlns="http://www.w3.org/2000/svg" xmlns:xlink="http://www.w3.org/1999/xlink" clip-rule="evenodd" stroke-miterlimit="10" viewBox="0 0 1024 768"><desc>SVG generated by Keynote</desc><defs></defs><g transform="matrix(1.00, 0.00, -0.00, -1.00, 0.0, 768.0)"><path d="M 0.0 768.0 L 1024.0 768.0 L 1024.0 0.0 L 0.0 0.0 Z M 0.0 768.0 " fill="#212121"></path><g><clipPath id="clip0x7fa266427210"><path d="M 647.2 535.1 L 548.9 436.3 L 760.0 226.2 L 858.4 325.0 Z M 647.2 535.1 "></path></clipPath><g clip-path="url(#clip0x7fa266427210)"><path d="M 133.8 0.0 L 0.0 294.2 " fill="none" stroke="#FEFFFE" stroke-width="4.00" transform="matrix(-0.71, -0.71, 0.71, -0.71, 646.5, 531.8)"></path></g></g><g><clipPath id="clip0x7fa26644bc10"><path d="M 406.7 672.5 L 468.9 634.2 L 402.6 526.7 L 340.5 564.9 Z M 406.7 672.5 "></path></clipPath><g clip-path="url(#clip0x7fa26644bc10)"><path d="M 67.5 0.0 L 0.0 122.4 " fill="none" stroke="#FEFFFE" stroke-width="4.00" transform="matrix(0.85, -0.52, -0.52, -0.85, 408.0, 669.4)"></path></g></g><g><clipPath id="clip0x7fa26644cc20"><path d="M 499.4 390.8 L 506.5 391.0 L 507.7 327.0 L 500.5 326.9 Z M 499.4 390.8 "></path></clipPath><g clip-path="url(#clip0x7fa26644cc20)"><path d="M 1.1 0.0 L 0.0 61.9 " fill="none" stroke="#FEFFFE" stroke-width="4.00" transform="matrix(1.00, 0.02, 0.02, -1.00, 502.4, 389.9)"></path></g></g><g><clipPath id="clip0x7fa266455950"><path d="M 359.8 535.1 L 458.2 436.3 L 247.0 226.2 L 148.7 325.0 Z M 359.8 535.1 "></path></clipPath><g clip-path="url(#clip0x7fa266455950)"><path d="M 133.8 0.0 L 0.0 294.2 " fill="none" stroke="#FEFFFE" stroke-width="4.00" transform="matrix(0.71, -0.71, -0.71, -0.71, 360.5, 531.8)"></path></g></g><g><clipPath id="clip0x7fa266456930"><path d="M 501.7 620.8 L 552.1 597.9 L 505.3 494.8 L 454.9 517.7 Z M 501.7 620.8 "></path></clipPath><g clip-path="url(#clip0x7fa266456930)"><path d="M 0.0 0.0 L 49.7 109.5 " fill="none" stroke="#FEFFFE" stroke-width="4.00" transform="matrix(0.91, -0.41, -0.41, -0.91, 503.5, 618.0)"></path></g></g><g><clipPath id="clip0x7fa2664579a0"><path d="M 447.1 616.3 L 558.1 616.3 L 558.1 727.3 L 447.1 727.3 Z M 447.1 616.3 "></path></clipPath><g clip-path="url(#clip0x7fa2664579a0)"><path d="M 85.4 14.6 C 104.9 34.2 104.9 65.8 85.4 85.4 C 65.8 104.9 34.2 104.9 14.6 85.4 C -4.9 65.8 -4.9 34.2 14.6 14.6 C 34.2 -4.9 65.8 -4.9 85.4 14.6 Z M 85.4 14.6 " fill="none" stroke="#FEFFFE" stroke-width="9.00" transform="matrix(1.00, 0.00, 0.00, -1.00, 452.6, 721.8)"></path></g></g><g><clipPath id="clip0x7fa266458b90"><path d="M 418.1 645.4 L 587.1 645.4 L 587.1 698.3 L 418.1 698.3 Z M 418.1 645.4 "></path></clipPath><g clip-path="url(#clip0x7fa266458b90)"><path d="M 419.0 697.0 L 586.0 697.0 L 586.0 646.0 L 419.0 646.0 Z M 419.1 697.3 " fill="#212121" fill-opacity="0.60"></path></g></g><g><clipPath id="clip0x7fa266459a70"><path d="M 412.5 638.7 L 592.8 638.7 L 592.8 703.9 L 412.5 703.9 Z M 412.5 638.7 "></path></clipPath><g clip-path="url(#clip0x7fa266459a70)"><text xml:space="preserve" font-family="HelveticaNeue-Light,Helvetica Neue" font-size="36.0" fill="#FEFFFF" transform="matrix(1.00, 0.00, -0.00, -1.00, 423.6, 658.0)">G</text><text xml:space="preserve" font-family="HelveticaNeue-Light,Helvetica Neue" font-size="36.0" fill="#FEFFFF" transform="matrix(1.00, 0.00, -0.00, -1.00, 450.3, 658.0)">a</text><text xml:space="preserve" font-family="HelveticaNeue-Light,Helvetica Neue" font-size="36.0" fill="#FEFFFF" transform="matrix(1.00, 0.00, -0.00, -1.00, 469.0, 658.0)">m</text><text xml:space="preserve" font-family="HelveticaNeue-Light,Helvetica Neue" font-size="36.0" fill="#FEFFFF" transform="matrix(1.00, 0.00, -0.00, -1.00, 498.9, 658.0)">e</text><text xml:space="preserve" font-family="HelveticaNeue-Light,Helvetica Neue" font-size="36.0" fill="#FEFFFF" transform="matrix(1.00, 0.00, -0.00, -1.00, 517.6, 658.0)">A</text><text xml:space="preserve" font-family="HelveticaNeue-Light,Helvetica Neue" font-size="36.0" fill="#FEFFFF" transform="matrix(1.00, 0.00, -0.00, -1.00, 540.3, 658.0)">p</text><text xml:space="preserve" font-family="HelveticaNeue-Light,Helvetica Neue" font-size="36.0" fill="#FEFFFF" transform="matrix(1.00, 0.00, -0.00, -1.00, 561.0, 658.0)">p</text></g></g><g><clipPath id="clip0x7fa26645df80"><path d="M 447.1 388.3 L 558.1 388.3 L 558.1 499.3 L 447.1 499.3 Z M 447.1 388.3 "></path></clipPath><g clip-path="url(#clip0x7fa26645df80)"><path d="M 85.4 14.6 C 104.9 34.2 104.9 65.8 85.4 85.4 C 65.8 104.9 34.2 104.9 14.6 85.4 C -4.9 65.8 -4.9 34.2 14.6 14.6 C 34.2 -4.9 65.8 -4.9 85.4 14.6 Z M 85.4 14.6 " fill="none" stroke="#FEFFFE" stroke-width="9.00" transform="matrix(1.00, 0.00, 0.00, -1.00, 452.6, 493.8)"></path></g></g><g><clipPath id="clip0x7fa26645f1f0"><path d="M 450.1 417.3 L 555.1 417.3 L 555.1 470.2 L 450.1 470.2 Z M 450.1 417.3 "></path></clipPath><g clip-path="url(#clip0x7fa26645f1f0)"><path d="M 451.0 469.0 L 554.0 469.0 L 554.0 418.0 L 451.0 418.0 Z M 451.1 469.2 " fill="#212121" fill-opacity="0.60"></path></g></g><g><clipPath id="clip0x7fa266460030"><path d="M 444.5 410.6 L 560.8 410.6 L 560.8 475.9 L 444.5 475.9 Z M 444.5 410.6 "></path></clipPath><g clip-path="url(#clip0x7fa266460030)"><text xml:space="preserve" font-family="HelveticaNeue-Light,Helvetica Neue" font-size="36.0" fill="#FEFFFF" transform="matrix(1.00, 0.00, -0.00, -1.00, 455.6, 430.0)">G</text><text xml:space="preserve" font-family="HelveticaNeue-Light,Helvetica Neue" font-size="36.0" fill="#FEFFFF" transform="matrix(1.00, 0.00, -0.00, -1.00, 482.3, 430.0)">a</text><text xml:space="preserve" font-family="HelveticaNeue-Light,Helvetica Neue" font-size="36.0" fill="#FEFFFF" transform="matrix(1.00, 0.00, -0.00, -1.00, 501.0, 430.0)">m</text><text xml:space="preserve" font-family="HelveticaNeue-Light,Helvetica Neue" font-size="36.0" fill="#FEFFFF" transform="matrix(1.00, 0.00, -0.00, -1.00, 531.0, 430.0)">e</text></g></g><g><clipPath id="clip0x7fa266462550"><path d="M 261.9 468.2 L 372.9 468.2 L 372.9 579.2 L 261.9 579.2 Z M 261.9 468.2 "></path></clipPath><g clip-path="url(#clip0x7fa266462550)"><path d="M 85.4 14.6 C 104.9 34.2 104.9 65.8 85.4 85.4 C 65.8 104.9 34.2 104.9 14.6 85.4 C -4.9 65.8 -4.9 34.2 14.6 14.6 C 34.2 -4.9 65.8 -4.9 85.4 14.6 Z M 85.4 14.6 " fill="none" stroke="#FEFFFE" stroke-width="9.00" transform="matrix(1.00, 0.00, 0.00, -1.00, 267.4, 573.7)"></path></g></g><g><clipPath id="clip0x7fa266463740"><path d="M 277.6 497.2 L 357.3 497.2 L 357.3 550.2 L 277.6 550.2 Z M 277.6 497.2 "></path></clipPath><g clip-path="url(#clip0x7fa266463740)"><path d="M 279.0 549.0 L 356.0 549.0 L 356.0 498.0 L 279.0 498.0 Z M 278.6 549.2 " fill="#212121" fill-opacity="0.60"></path></g></g><g><clipPath id="clip0x7fa266464550"><path d="M 272.0 490.5 L 362.9 490.5 L 362.9 555.8 L 272.0 555.8 Z M 272.0 490.5 "></path></clipPath><g clip-path="url(#clip0x7fa266464550)"><text xml:space="preserve" font-family="HelveticaNeue-Light,Helvetica Neue" font-size="36.0" fill="#FEFFFF" transform="matrix(1.00, 0.00, -0.00, -1.00, 283.1, 509.9)">I</text><text xml:space="preserve" font-family="HelveticaNeue-Light,Helvetica Neue" font-size="36.0" fill="#FEFFFF" transform="matrix(1.00, 0.00, -0.00, -1.00, 291.1, 509.9)">n</text><text xml:space="preserve" font-family="HelveticaNeue-Light,Helvetica Neue" font-size="36.0" fill="#FEFFFF" transform="matrix(1.00, 0.00, -0.00, -1.00, 310.4, 509.9)">t</text><text xml:space="preserve" font-family="HelveticaNeue-Light,Helvetica Neue" font-size="36.0" fill="#FEFFFF" transform="matrix(1.00, 0.00, -0.00, -1.00, 321.1, 509.9)">r</text><text xml:space="preserve" font-family="HelveticaNeue-Light,Helvetica Neue" font-size="36.0" fill="#FEFFFF" transform="matrix(1.00, 0.00, -0.00, -1.00, 331.7, 509.9)">o</text></g></g><g><clipPath id="clip0x7fa2664670c0"><path d="M 633.5 468.2 L 744.5 468.2 L 744.5 579.2 L 633.5 579.2 Z M 633.5 468.2 "></path></clipPath><g clip-path="url(#clip0x7fa2664670c0)"><path d="M 85.4 14.6 C 104.9 34.2 104.9 65.8 85.4 85.4 C 65.8 104.9 34.2 104.9 14.6 85.4 C -4.9 65.8 -4.9 34.2 14.6 14.6 C 34.2 -4.9 65.8 -4.9 85.4 14.6 Z M 85.4 14.6 " fill="none" stroke="#FEFFFE" stroke-width="9.00" transform="matrix(1.00, 0.00, 0.00, -1.00, 639.0, 573.7)"></path></g></g><g><clipPath id="clip0x7fa266468390"><path d="M 638.1 497.2 L 739.9 497.2 L 739.9 550.2 L 638.1 550.2 Z M 638.1 497.2 "></path></clipPath><g clip-path="url(#clip0x7fa266468390)"><path d="M 639.0 549.0 L 739.0 549.0 L 739.0 498.0 L 639.0 498.0 Z M 639.1 549.2 " fill="#212121" fill-opacity="0.60"></path></g></g><g><clipPath id="clip0x7fa2664691e0"><path d="M 632.5 490.5 L 745.5 490.5 L 745.5 555.8 L 632.5 555.8 Z M 632.5 490.5 "></path></clipPath><g clip-path="url(#clip0x7fa2664691e0)"><text xml:space="preserve" font-family="HelveticaNeue-Light,Helvetica Neue" font-size="36.0" fill="#FEFFFF" transform="matrix(1.00, 0.00, -0.00, -1.00, 643.6, 509.9)">S</text><text xml:space="preserve" font-family="HelveticaNeue-Light,Helvetica Neue" font-size="36.0" fill="#FEFFFF" transform="matrix(1.00, 0.00, -0.00, -1.00, 666.3, 509.9)">c</text><text xml:space="preserve" font-family="HelveticaNeue-Light,Helvetica Neue" font-size="36.0" fill="#FEFFFF" transform="matrix(1.00, 0.00, -0.00, -1.00, 685.0, 509.9)">o</text><text xml:space="preserve" font-family="HelveticaNeue-Light,Helvetica Neue" font-size="36.0" fill="#FEFFFF" transform="matrix(1.00, 0.00, -0.00, -1.00, 705.0, 509.9)">r</text><text xml:space="preserve" font-family="HelveticaNeue-Light,Helvetica Neue" font-size="36.0" fill="#FEFFFF" transform="matrix(1.00, 0.00, -0.00, -1.00, 715.7, 509.9)">e</text></g></g><g><clipPath id="clip0x7fa26646bd30"><path d="M 93.9 218.6 L 204.9 218.6 L 204.9 329.6 L 93.9 329.6 Z M 93.9 218.6 "></path></clipPath><g clip-path="url(#clip0x7fa26646bd30)"><path d="M 85.4 14.6 C 104.9 34.2 104.9 65.8 85.4 85.4 C 65.8 104.9 34.2 104.9 14.6 85.4 C -4.9 65.8 -4.9 34.2 14.6 14.6 C 34.2 -4.9 65.8 -4.9 85.4 14.6 Z M 85.4 14.6 " fill="none" stroke="#FEFFFE" stroke-width="9.00" transform="matrix(1.00, 0.00, 0.00, -1.00, 99.4, 324.1)"></path></g></g><g><clipPath id="clip0x7fa26646cf70"><path d="M 96.2 247.6 L 202.6 247.6 L 202.6 300.6 L 96.2 300.6 Z M 96.2 247.6 "></path></clipPath><g clip-path="url(#clip0x7fa26646cf70)"><path d="M 97.0 300.0 L 202.0 300.0 L 202.0 249.0 L 97.0 249.0 Z M 97.2 299.6 " fill="#212121" fill-opacity="0.60"></path></g></g><g><clipPath id="clip0x7fa26646dd80"><path d="M 90.6 241.0 L 208.2 241.0 L 208.2 306.2 L 90.6 306.2 Z M 90.6 241.0 "></path></clipPath><g clip-path="url(#clip0x7fa26646dd80)"><text xml:space="preserve" font-family="HelveticaNeue-Light,Helvetica Neue" font-size="36.0" fill="#FEFFFF" transform="matrix(1.00, 0.00, -0.00, -1.00, 101.7, 260.3)">H</text><text xml:space="preserve" font-family="HelveticaNeue-Light,Helvetica Neue" font-size="36.0" fill="#FEFFFF" transform="matrix(1.00, 0.00, -0.00, -1.00, 127.1, 260.3)">o</text><text xml:space="preserve" font-family="HelveticaNeue-Light,Helvetica Neue" font-size="36.0" fill="#FEFFFF" transform="matrix(1.00, 0.00, -0.00, -1.00, 147.1, 260.3)">r</text><text xml:space="preserve" font-family="HelveticaNeue-Light,Helvetica Neue" font-size="36.0" fill="#FEFFFF" transform="matrix(1.00, 0.00, -0.00, -1.00, 157.8, 260.3)">d</text><text xml:space="preserve" font-family="HelveticaNeue-Light,Helvetica Neue" font-size="36.0" fill="#FEFFFF" transform="matrix(1.00, 0.00, -0.00, -1.00, 178.4, 260.3)">e</text></g></g><g><clipPath id="clip0x7fa2664708d0"><path d="M 93.9 40.7 L 204.9 40.7 L 204.9 151.7 L 93.9 151.7 Z M 93.9 40.7 "></path></clipPath><g clip-path="url(#clip0x7fa2664708d0)"><path d="M 85.4 14.6 C 104.9 34.2 104.9 65.8 85.4 85.4 C 65.8 104.9 34.2 104.9 14.6 85.4 C -4.9 65.8 -4.9 34.2 14.6 14.6 C 34.2 -4.9 65.8 -4.9 85.4 14.6 Z M 85.4 14.6 " fill="none" stroke="#FEFFFE" stroke-width="9.00" transform="matrix(1.00, 0.00, 0.00, -1.00, 99.4, 146.2)"></path></g></g><g><clipPath id="clip0x7fa266471b00"><path d="M 101.2 69.7 L 197.6 69.7 L 197.6 122.6 L 101.2 122.6 Z M 101.2 69.7 "></path></clipPath><g clip-path="url(#clip0x7fa266471b00)"><path d="M 102.0 122.0 L 197.0 122.0 L 197.0 71.0 L 102.0 71.0 Z M 102.2 121.6 " fill="#212121" fill-opacity="0.60"></path></g></g><g><clipPath id="clip0x7fa266472910"><path d="M 95.6 63.0 L 203.2 63.0 L 203.2 128.3 L 95.6 128.3 Z M 95.6 63.0 "></path></clipPath><g clip-path="url(#clip0x7fa266472910)"><text xml:space="preserve" font-family="HelveticaNeue-Light,Helvetica Neue" font-size="36.0" fill="#FEFFFF" transform="matrix(1.00, 0.00, -0.00, -1.00, 106.7, 82.3)">O</text><text xml:space="preserve" font-family="HelveticaNeue-Light,Helvetica Neue" font-size="36.0" fill="#FEFFFF" transform="matrix(1.00, 0.00, -0.00, -1.00, 133.4, 82.3)">u</text><text xml:space="preserve" font-family="HelveticaNeue-Light,Helvetica Neue" font-size="36.0" fill="#FEFFFF" transform="matrix(1.00, 0.00, -0.00, -1.00, 152.8, 82.3)">n</text><text xml:space="preserve" font-family="HelveticaNeue-Light,Helvetica Neue" font-size="36.0" fill="#FEFFFF" transform="matrix(1.00, 0.00, -0.00, -1.00, 172.1, 82.3)">o</text></g></g><g><clipPath id="clip0x7fa266474e30"><path d="M 271.3 218.6 L 382.3 218.6 L 382.3 329.6 L 271.3 329.6 Z M 271.3 218.6 "></path></clipPath><g clip-path="url(#clip0x7fa266474e30)"><path d="M 85.4 14.6 C 104.9 34.2 104.9 65.8 85.4 85.4 C 65.8 104.9 34.2 104.9 14.6 85.4 C -4.9 65.8 -4.9 34.2 14.6 14.6 C 34.2 -4.9 65.8 -4.9 85.4 14.6 Z M 85.4 14.6 " fill="none" stroke="#FEFFFE" stroke-width="9.00" transform="matrix(1.00, 0.00, 0.00, -1.00, 276.8, 324.1)"></path></g></g><g><clipPath id="clip0x7fa266476110"><path d="M 284.0 247.6 L 369.6 247.6 L 369.6 300.6 L 284.0 300.6 Z M 284.0 247.6 "></path></clipPath><g clip-path="url(#clip0x7fa266476110)"><path d="M 285.0 300.0 L 369.0 300.0 L 369.0 249.0 L 285.0 249.0 Z M 285.0 299.6 " fill="#212121" fill-opacity="0.60"></path></g></g><g><clipPath id="clip0x7fa266476f00"><path d="M 278.3 241.0 L 375.2 241.0 L 375.2 306.2 L 278.3 306.2 Z M 278.3 241.0 "></path></clipPath><g clip-path="url(#clip0x7fa266476f00)"><text xml:space="preserve" font-family="HelveticaNeue-Light,Helvetica Neue" font-size="36.0" fill="#FEFFFF" transform="matrix(1.00, 0.00, -0.00, -1.00, 289.5, 260.3)">H</text><text xml:space="preserve" font-family="HelveticaNeue-Light,Helvetica Neue" font-size="36.0" fill="#FEFFFF" transform="matrix(1.00, 0.00, -0.00, -1.00, 314.8, 260.3)">U</text><text xml:space="preserve" font-family="HelveticaNeue-Light,Helvetica Neue" font-size="36.0" fill="#FEFFFF" transform="matrix(1.00, 0.00, -0.00, -1.00, 339.5, 260.3)">D</text></g></g><g><clipPath id="clip0x7fa266478ea0"><path d="M 448.7 218.6 L 559.7 218.6 L 559.7 329.6 L 448.7 329.6 Z M 448.7 218.6 "></path></clipPath><g clip-path="url(#clip0x7fa266478ea0)"><path d="M 85.4 14.6 C 104.9 34.2 104.9 65.8 85.4 85.4 C 65.8 104.9 34.2 104.9 14.6 85.4 C -4.9 65.8 -4.9 34.2 14.6 14.6 C 34.2 -4.9 65.8 -4.9 85.4 14.6 Z M 85.4 14.6 " fill="none" stroke="#FEFFFE" stroke-width="9.00" transform="matrix(1.00, 0.00, 0.00, -1.00, 454.2, 324.1)"></path></g></g><g><clipPath id="clip0x7fa26647a090"><path d="M 464.0 247.6 L 544.3 247.6 L 544.3 300.6 L 464.0 300.6 Z M 464.0 247.6 "></path></clipPath><g clip-path="url(#clip0x7fa26647a090)"><path d="M 465.0 300.0 L 543.0 300.0 L 543.0 249.0 L 465.0 249.0 Z M 465.0 299.6 " fill="#212121" fill-opacity="0.60"></path></g></g><g><clipPath id="clip0x7fa26647aea0"><path d="M 458.4 241.0 L 550.0 241.0 L 550.0 306.2 L 458.4 306.2 Z M 458.4 241.0 "></path></clipPath><g clip-path="url(#clip0x7fa26647aea0)"><text xml:space="preserve" font-family="HelveticaNeue-Light,Helvetica Neue" font-size="36.0" fill="#FEFFFF" transform="matrix(1.00, 0.00, -0.00, -1.00, 469.5, 260.3)">S</text><text xml:space="preserve" font-family="HelveticaNeue-Light,Helvetica Neue" font-size="36.0" fill="#FEFFFF" transform="matrix(1.00, 0.00, -0.00, -1.00, 492.2, 260.3)">h</text><text xml:space="preserve" font-family="HelveticaNeue-Light,Helvetica Neue" font-size="36.0" fill="#FEFFFF" transform="matrix(1.00, 0.00, -0.00, -1.00, 511.5, 260.3)">i</text><text xml:space="preserve" font-family="HelveticaNeue-Light,Helvetica Neue" font-size="36.0" fill="#FEFFFF" transform="matrix(1.00, 0.00, -0.00, -1.00, 518.2, 260.3)">p</text></g></g><g><clipPath id="clip0x7fa26647d3c0"><path d="M 626.0 218.6 L 737.0 218.6 L 737.0 329.6 L 626.0 329.6 Z M 626.0 218.6 "></path></clipPath><g clip-path="url(#clip0x7fa26647d3c0)"><path d="M 85.4 14.6 C 104.9 34.2 104.9 65.8 85.4 85.4 C 65.8 104.9 34.2 104.9 14.6 85.4 C -4.9 65.8 -4.9 34.2 14.6 14.6 C 34.2 -4.9 65.8 -4.9 85.4 14.6 Z M 85.4 14.6 " fill="none" stroke="#FEFFFE" stroke-width="9.00" transform="matrix(1.00, 0.00, 0.00, -1.00, 631.5, 324.1)"></path></g></g><g><clipPath id="clip0x7fa26647e5b0"><path d="M 603.7 225.6 L 759.4 225.6 L 759.4 322.6 L 603.7 322.6 Z M 603.7 225.6 "></path></clipPath><g clip-path="url(#clip0x7fa26647e5b0)"><path d="M 605.0 322.0 L 758.0 322.0 L 758.0 227.0 L 605.0 227.0 Z M 604.7 321.6 " fill="#212121" fill-opacity="0.60"></path></g></g><g><clipPath id="clip0x7fa26647f3c0"><path d="M 598.1 219.0 L 880.2 219.0 L 880.2 328.2 L 598.1 328.2 Z M 598.1 219.0 "></path></clipPath><g clip-path="url(#clip0x7fa26647f3c0)"><text xml:space="preserve" font-family="HelveticaNeue-Light,Helvetica Neue" font-size="36.0" fill="#FEFFFF" transform="matrix(1.00, 0.00, -0.00, -1.00, 626.5, 282.3)">R</text><text xml:space="preserve" font-family="HelveticaNeue-Light,Helvetica Neue" font-size="36.0" fill="#FEFFFF" transform="matrix(1.00, 0.00, -0.00, -1.00, 650.5, 282.3)">o</text><text xml:space="preserve" font-family="HelveticaNeue-Light,Helvetica Neue" font-size="36.0" fill="#FEFFFF" transform="matrix(1.00, 0.00, -0.00, -1.00, 670.5, 282.3)">c</text><text xml:space="preserve" font-family="HelveticaNeue-Light,Helvetica Neue" font-size="36.0" fill="#FEFFFF" transform="matrix(1.00, 0.00, -0.00, -1.00, 689.2, 282.3)">k</text><text xml:space="preserve" font-family="HelveticaNeue-Light,Helvetica Neue" font-size="36.0" fill="#FEFFFF" transform="matrix(1.00, 0.00, -0.00, -1.00, 707.2, 282.3)">e</text><text xml:space="preserve" font-family="HelveticaNeue-Light,Helvetica Neue" font-size="36.0" fill="#FEFFFF" transform="matrix(1.00, 0.00, -0.00, -1.00, 725.9, 282.3)">t</text><text xml:space="preserve" font-family="HelveticaNeue-Light,Helvetica Neue" font-size="36.0" fill="#FEFFFF" transform="matrix(1.00, 0.00, -0.00, -1.00, 736.6, 282.3)"> </text><text xml:space="preserve" font-family="HelveticaNeue-Light,Helvetica Neue" font-size="36.0" fill="#FEFFFF" transform="matrix(1.00, 0.00, -0.00, -1.00, 609.2, 238.3)">L</text><text xml:space="preserve" font-family="HelveticaNeue-Light,Helvetica Neue" font-size="36.0" fill="#FEFFFF" transform="matrix(1.00, 0.00, -0.00, -1.00, 628.5, 238.3)">a</text><text xml:space="preserve" font-family="HelveticaNeue-Light,Helvetica Neue" font-size="36.0" fill="#FEFFFF" transform="matrix(1.00, 0.00, -0.00, -1.00, 647.2, 238.3)">u</text><text xml:space="preserve" font-family="HelveticaNeue-Light,Helvetica Neue" font-size="36.0" fill="#FEFFFF" transform="matrix(1.00, 0.00, -0.00, -1.00, 666.5, 238.3)">n</text><text xml:space="preserve" font-family="HelveticaNeue-Light,Helvetica Neue" font-size="36.0" fill="#FEFFFF" transform="matrix(1.00, 0.00, -0.00, -1.00, 685.9, 238.3)">c</text><text xml:space="preserve" font-family="HelveticaNeue-Light,Helvetica Neue" font-size="36.0" fill="#FEFFFF" transform="matrix(1.00, 0.00, -0.00, -1.00, 704.5, 238.3)">h</text><text xml:space="preserve" font-family="HelveticaNeue-Light,Helvetica Neue" font-size="36.0" fill="#FEFFFF" transform="matrix(1.00, 0.00, -0.00, -1.00, 723.9, 238.3)">e</text><text xml:space="preserve" font-family="HelveticaNeue-Light,Helvetica Neue" font-size="36.0" fill="#FEFFFF" transform="matrix(1.00, 0.00, -0.00, -1.00, 742.6, 238.3)">r</text></g></g><g><clipPath id="clip0x7fa266485e70"><path d="M 626.0 42.0 L 737.0 42.0 L 737.0 153.0 L 626.0 153.0 Z M 626.0 42.0 "></path></clipPath><g clip-path="url(#clip0x7fa266485e70)"><path d="M 85.4 14.6 C 104.9 34.2 104.9 65.8 85.4 85.4 C 65.8 104.9 34.2 104.9 14.6 85.4 C -4.9 65.8 -4.9 34.2 14.6 14.6 C 34.2 -4.9 65.8 -4.9 85.4 14.6 Z M 85.4 14.6 " fill="none" stroke="#FEFFFE" stroke-width="9.00" transform="matrix(1.00, 0.00, 0.00, -1.00, 631.5, 147.5)"></path></g></g><g><clipPath id="clip0x7fa266487060"><path d="M 621.0 71.0 L 742.1 71.0 L 742.1 124.0 L 621.0 124.0 Z M 621.0 71.0 "></path></clipPath><g clip-path="url(#clip0x7fa266487060)"><path d="M 622.0 123.0 L 741.0 123.0 L 741.0 72.0 L 622.0 72.0 Z M 622.0 123.0 " fill="#212121" fill-opacity="0.60"></path></g></g><g><clipPath id="clip0x7fa266487e70"><path d="M 615.4 64.4 L 747.7 64.4 L 747.7 129.6 L 615.4 129.6 Z M 615.4 64.4 "></path></clipPath><g clip-path="url(#clip0x7fa266487e70)"><text xml:space="preserve" font-family="HelveticaNeue-Light,Helvetica Neue" font-size="36.0" fill="#FEFFFF" transform="matrix(1.00, 0.00, -0.00, -1.00, 626.5, 83.7)">R</text><text xml:space="preserve" font-family="HelveticaNeue-Light,Helvetica Neue" font-size="36.0" fill="#FEFFFF" transform="matrix(1.00, 0.00, -0.00, -1.00, 650.5, 83.7)">o</text><text xml:space="preserve" font-family="HelveticaNeue-Light,Helvetica Neue" font-size="36.0" fill="#FEFFFF" transform="matrix(1.00, 0.00, -0.00, -1.00, 670.5, 83.7)">c</text><text xml:space="preserve" font-family="HelveticaNeue-Light,Helvetica Neue" font-size="36.0" fill="#FEFFFF" transform="matrix(1.00, 0.00, -0.00, -1.00, 689.2, 83.7)">k</text><text xml:space="preserve" font-family="HelveticaNeue-Light,Helvetica Neue" font-size="36.0" fill="#FEFFFF" transform="matrix(1.00, 0.00, -0.00, -1.00, 707.2, 83.7)">e</text><text xml:space="preserve" font-family="HelveticaNeue-Light,Helvetica Neue" font-size="36.0" fill="#FEFFFF" transform="matrix(1.00, 0.00, -0.00, -1.00, 725.9, 83.7)">t</text></g></g><g><clipPath id="clip0x7fa26648afb0"><path d="M 803.4 218.6 L 914.4 218.6 L 914.4 329.6 L 803.4 329.6 Z M 803.4 218.6 "></path></clipPath><g clip-path="url(#clip0x7fa26648afb0)"><path d="M 85.4 14.6 C 104.9 34.2 104.9 65.8 85.4 85.4 C 65.8 104.9 34.2 104.9 14.6 85.4 C -4.9 65.8 -4.9 34.2 14.6 14.6 C 34.2 -4.9 65.8 -4.9 85.4 14.6 Z M 85.4 14.6 " fill="none" stroke="#FEFFFE" stroke-width="9.00" transform="matrix(1.00, 0.00, 0.00, -1.00, 808.9, 324.1)"></path></g></g><g><clipPath id="clip0x7fa26648c1a0"><path d="M 791.4 225.6 L 926.4 225.6 L 926.4 322.6 L 791.4 322.6 Z M 791.4 225.6 "></path></clipPath><g clip-path="url(#clip0x7fa26648c1a0)"><path d="M 792.0 322.0 L 925.0 322.0 L 925.0 227.0 L 792.0 227.0 Z M 792.4 321.6 " fill="#212121" fill-opacity="0.60"></path></g></g><g><clipPath id="clip0x7fa26648cfb0"><path d="M 785.8 219.0 L 1051.3 219.0 L 1051.3 328.2 L 785.8 328.2 Z M 785.8 219.0 "></path></clipPath><g clip-path="url(#clip0x7fa26648cfb0)"><text xml:space="preserve" font-family="HelveticaNeue-Light,Helvetica Neue" font-size="36.0" fill="#FEFFFF" transform="matrix(1.00, 0.00, -0.00, -1.00, 801.9, 282.3)">P</text><text xml:space="preserve" font-family="HelveticaNeue-Light,Helvetica Neue" font-size="36.0" fill="#FEFFFF" transform="matrix(1.00, 0.00, -0.00, -1.00, 824.6, 282.3)">a</text><text xml:space="preserve" font-family="HelveticaNeue-Light,Helvetica Neue" font-size="36.0" fill="#FEFFFF" transform="matrix(1.00, 0.00, -0.00, -1.00, 843.3, 282.3)">r</text><text xml:space="preserve" font-family="HelveticaNeue-Light,Helvetica Neue" font-size="36.0" fill="#FEFFFF" transform="matrix(1.00, 0.00, -0.00, -1.00, 854.6, 282.3)">t</text><text xml:space="preserve" font-family="HelveticaNeue-Light,Helvetica Neue" font-size="36.0" fill="#FEFFFF" transform="matrix(1.00, 0.00, -0.00, -1.00, 865.3, 282.3)">i</text><text xml:space="preserve" font-family="HelveticaNeue-Light,Helvetica Neue" font-size="36.0" fill="#FEFFFF" transform="matrix(1.00, 0.00, -0.00, -1.00, 871.9, 282.3)">c</text><text xml:space="preserve" font-family="HelveticaNeue-Light,Helvetica Neue" font-size="36.0" fill="#FEFFFF" transform="matrix(1.00, 0.00, -0.00, -1.00, 890.6, 282.3)">l</text><text xml:space="preserve" font-family="HelveticaNeue-Light,Helvetica Neue" font-size="36.0" fill="#FEFFFF" transform="matrix(1.00, 0.00, -0.00, -1.00, 897.3, 282.3)">e</text><text xml:space="preserve" font-family="HelveticaNeue-Light,Helvetica Neue" font-size="36.0" fill="#FEFFFF" transform="matrix(1.00, 0.00, -0.00, -1.00, 915.9, 282.3)"> </text><text xml:space="preserve" font-family="HelveticaNeue-Light,Helvetica Neue" font-size="36.0" fill="#FEFFFF" transform="matrix(1.00, 0.00, -0.00, -1.00, 800.9, 238.3)">S</text><text xml:space="preserve" font-family="HelveticaNeue-Light,Helvetica Neue" font-size="36.0" fill="#FEFFFF" transform="matrix(1.00, 0.00, -0.00, -1.00, 823.6, 238.3)">y</text><text xml:space="preserve" font-family="HelveticaNeue-Light,Helvetica Neue" font-size="36.0" fill="#FEFFFF" transform="matrix(1.00, 0.00, -0.00, -1.00, 840.3, 238.3)">s</text><text xml:space="preserve" font-family="HelveticaNeue-Light,Helvetica Neue" font-size="36.0" fill="#FEFFFF" transform="matrix(1.00, 0.00, -0.00, -1.00, 857.6, 238.3)">t</text><text xml:space="preserve" font-family="HelveticaNeue-Light,Helvetica Neue" font-size="36.0" fill="#FEFFFF" transform="matrix(1.00, 0.00, -0.00, -1.00, 868.2, 238.3)">e</text><text xml:space="preserve" font-family="HelveticaNeue-Light,Helvetica Neue" font-size="36.0" fill="#FEFFFF" transform="matrix(1.00, 0.00, -0.00, -1.00, 886.9, 238.3)">m</text></g></g><g><clipPath id="clip0x7fa266493ab0"><path d="M 475.2 404.9 L 481.4 333.6 L 336.8 321.1 L 330.6 392.3 Z M 475.2 404.9 "></path></clipPath><g clip-path="url(#clip0x7fa266493ab0)"><path d="M 0.0 0.0 L 65.9 141.4 " fill="none" stroke="#FEFFFE" stroke-width="4.00" transform="matrix(0.09, -1.00, -1.00, -0.09, 473.6, 401.9)"></path></g></g><g><clipPath id="clip0x7fa266494b10"><path d="M 600.3 672.5 L 538.2 634.2 L 604.4 526.7 L 666.6 564.9 Z M 600.3 672.5 "></path></clipPath><g clip-path="url(#clip0x7fa266494b10)"><path d="M 67.5 0.0 L 0.0 122.4 " fill="none" stroke="#FEFFFE" stroke-width="4.00" transform="matrix(-0.85, -0.52, 0.52, -0.85, 599.0, 669.4)"></path></g></g><g><clipPath id="clip0x7fa266495c70"><path d="M 144.6 227.8 L 152.1 227.9 L 153.7 142.5 L 146.2 142.4 Z M 144.6 227.8 "></path></clipPath><g clip-path="url(#clip0x7fa266495c70)"><path d="M 1.5 0.0 L 0.0 83.3 " fill="none" stroke="#FEFFFE" stroke-width="4.00" transform="matrix(1.00, 0.02, 0.02, -1.00, 147.7, 226.8)"></path></g></g><g><clipPath id="clip0x7fa266496c60"><path d="M 677.8 227.8 L 685.3 227.9 L 686.8 142.5 L 679.3 142.4 Z M 677.8 227.8 "></path></clipPath><g clip-path="url(#clip0x7fa266496c60)"><path d="M 1.5 0.0 L 0.0 83.3 " fill="none" stroke="#FEFFFE" stroke-width="4.00" transform="matrix(1.00, 0.02, 0.02, -1.00, 680.8, 226.8)"></path></g></g><g><clipPath id="clip0x7fa266497d40"><path d="M 531.8 404.9 L 525.6 333.6 L 670.2 321.1 L 676.4 392.3 Z M 531.8 404.9 "></path></clipPath><g clip-path="url(#clip0x7fa266497d40)"><path d="M 0.0 0.0 L 65.9 141.4 " fill="none" stroke="#FEFFFE" stroke-width="4.00" transform="matrix(-0.09, -1.00, 1.00, -0.09, 533.4, 401.9)"></path></g></g><g><clipPath id="clip0x7fa266498d80"><path d="M -1.0 368.1 L 1025.0 368.1 L 1025.0 592.7 L -1.0 592.7 Z M -1.0 368.1 "></path></clipPath><g clip-path="url(#clip0x7fa266498d80)"><path d="M 0.0 592.0 L 1024.0 592.0 L 1024.0 369.0 L 0.0 369.0 Z M 0.0 591.7 " fill="#34699B" fill-opacity="0.12"></path></g></g><g><clipPath id="clip0x7fa266499c60"><path d="M 856.9 449.9 L 1016.0 449.9 L 1016.0 510.9 L 856.9 510.9 Z M 856.9 449.9 "></path></clipPath><g clip-path="url(#clip0x7fa266499c60)"><text xml:space="preserve" font-family="Helvetica-Bold,Helvetica" font-weight="bold" font-size="36.0" fill="#1497FC" transform="matrix(1.00, 0.00, -0.00, -1.00, 866.4, 467.2)">S</text><text xml:space="preserve" font-family="Helvetica-Bold,Helvetica" font-weight="bold" font-size="36.0" fill="#1497FC" transform="matrix(1.00, 0.00, -0.00, -1.00, 890.4, 467.2)">c</text><text xml:space="preserve" font-family="Helvetica-Bold,Helvetica" font-weight="bold" font-size="36.0" fill="#1497FC" transform="matrix(1.00, 0.00, -0.00, -1.00, 910.5, 467.2)">r</text><text xml:space="preserve" font-family="Helvetica-Bold,Helvetica" font-weight="bold" font-size="36.0" fill="#1497FC" transform="matrix(1.00, 0.00, -0.00, -1.00, 924.5, 467.2)">e</text><text xml:space="preserve" font-family="Helvetica-Bold,Helvetica" font-weight="bold" font-size="36.0" fill="#1497FC" transform="matrix(1.00, 0.00, -0.00, -1.00, 944.5, 467.2)">e</text><text xml:space="preserve" font-family="Helvetica-Bold,Helvetica" font-weight="bold" font-size="36.0" fill="#1497FC" transform="matrix(1.00, 0.00, -0.00, -1.00, 964.5, 467.2)">n</text><text xml:space="preserve" font-family="Helvetica-Bold,Helvetica" font-weight="bold" font-size="36.0" fill="#1497FC" transform="matrix(1.00, 0.00, -0.00, -1.00, 986.5, 467.2)">s</text></g></g><g><clipPath id="clip0x7fa26649de10"><path d="M -1.0 -1.4 L 1025.0 -1.4 L 1025.0 370.0 L -1.0 370.0 Z M -1.0 -1.4 "></path></clipPath><g clip-path="url(#clip0x7fa26649de10)"><path d="M 0.0 369.0 L 1024.0 369.0 L 1024.0 0.0 L 0.0 0.0 Z M 0.0 369.0 " fill="#9C4663" fill-opacity="0.12"></path></g></g><g><clipPath id="clip0x7fa26649ec20"><path d="M 899.7 71.5 L 1014.7 71.5 L 1014.7 132.5 L 899.7 132.5 Z M 899.7 71.5 "></path></clipPath><g clip-path="url(#clip0x7fa26649ec20)"><text xml:space="preserve" font-family="Helvetica-Bold,Helvetica" font-weight="bold" font-size="36.0" fill="#D35854" transform="matrix(1.00, 0.00, -0.00, -1.00, 909.2, 88.8)">O</text><text xml:space="preserve" font-family="Helvetica-Bold,Helvetica" font-weight="bold" font-size="36.0" fill="#D35854" transform="matrix(1.00, 0.00, -0.00, -1.00, 937.1, 88.8)">t</text><text xml:space="preserve" font-family="Helvetica-Bold,Helvetica" font-weight="bold" font-size="36.0" fill="#D35854" transform="matrix(1.00, 0.00, -0.00, -1.00, 949.1, 88.8)">h</text><text xml:space="preserve" font-family="Helvetica-Bold,Helvetica" font-weight="bold" font-size="36.0" fill="#D35854" transform="matrix(1.00, 0.00, -0.00, -1.00, 971.1, 88.8)">e</text><text xml:space="preserve" font-family="Helvetica-Bold,Helvetica" font-weight="bold" font-size="36.0" fill="#D35854" transform="matrix(1.00, 0.00, -0.00, -1.00, 991.1, 88.8)">r</text></g></g><g><clipPath id="clip0x7fa2664a1930"><path d="M -9.8 588.8 L 1033.8 588.8 L 1033.8 768.8 L -9.8 768.8 Z M -9.8 588.8 "></path></clipPath><g clip-path="url(#clip0x7fa2664a1930)"><path d="M -9.0 590.0 L 1033.0 590.0 L 1033.0 768.0 L -9.0 768.0 Z M -8.8 589.8 " fill="#259719" fill-opacity="0.12"></path></g></g><g><clipPath id="clip0x7fa2664a2720"><path d="M 888.1 646.7 L 1025.2 646.7 L 1025.2 707.7 L 888.1 707.7 Z M 888.1 646.7 "></path></clipPath><g clip-path="url(#clip0x7fa2664a2720)"><text xml:space="preserve" font-family="Helvetica-Bold,Helvetica" font-weight="bold" font-size="36.0" fill="#7ADA45" transform="matrix(1.00, 0.00, -0.00, -1.00, 898.6, 664.0)">R</text><text xml:space="preserve" font-family="Helvetica-Bold,Helvetica" font-weight="bold" font-size="36.0" fill="#7ADA45" transform="matrix(1.00, 0.00, -0.00, -1.00, 924.6, 664.0)">o</text><text xml:space="preserve" font-family="Helvetica-Bold,Helvetica" font-weight="bold" font-size="36.0" fill="#7ADA45" transform="matrix(1.00, 0.00, -0.00, -1.00, 946.6, 664.0)">u</text><text xml:space="preserve" font-family="Helvetica-Bold,Helvetica" font-weight="bold" font-size="36.0" fill="#7ADA45" transform="matrix(1.00, 0.00, -0.00, -1.00, 968.6, 664.0)">t</text><text xml:space="preserve" font-family="Helvetica-Bold,Helvetica" font-weight="bold" font-size="36.0" fill="#7ADA45" transform="matrix(1.00, 0.00, -0.00, -1.00, 980.6, 664.0)">e</text><text xml:space="preserve" font-family="Helvetica-Bold,Helvetica" font-weight="bold" font-size="36.0" fill="#7ADA45" transform="matrix(1.00, 0.00, -0.00, -1.00, 1000.6, 664.0)">r</text></g></g></g></svg>