<?xml version="1.0" encoding="UTF-8" standalone="no"?><svg xmlns="http://www.w3.org/2000/svg" xmlns:xlink="http://www.w3.org/1999/xlink" clip-rule="evenodd" stroke-miterlimit="10" viewBox="0 0 1024 768"><desc>SVG generated by Keynote</desc><defs></defs><g transform="matrix(1.00, 0.00, -0.00, -1.00, 0.0, 768.0)"><path d="M 0.0 768.0 L 1024.0 768.0 L 1024.0 0.0 L 0.0 0.0 Z M 0.0 768.0 " fill="#212121"></path><path d="M 85.4 14.6 C 104.9 34.2 104.9 65.8 85.4 85.4 C 65.8 104.9 34.2 104.9 14.6 85.4 C -4.9 65.8 -4.9 34.2 14.6 14.6 C 34.2 -4.9 65.8 -4.9 85.4 14.6 Z M 85.4 14.6 " fill="none" stroke="#FEFFFE" stroke-width="9.00" transform="matrix(1.00, 0.00, 0.00, -1.00, 449.7, 625.5)"></path><path d="M 85.4 14.6 C 104.9 34.2 104.9 65.8 85.4 85.4 C 65.8 104.9 34.2 104.9 14.6 85.4 C -4.9 65.8 -4.9 34.2 14.6 14.6 C 34.2 -4.9 65.8 -4.9 85.4 14.6 Z M 85.4 14.6 " fill="none" stroke="#FEFFFE" stroke-width="9.00" transform="matrix(1.00, 0.00, 0.00, -1.00, 312.9, 432.5)"></path><path d="M 85.4 14.6 C 104.9 34.2 104.9 65.8 85.4 85.4 C 65.8 104.9 34.2 104.9 14.6 85.4 C -4.9 65.8 -4.9 34.2 14.6 14.6 C 34.2 -4.9 65.8 -4.9 85.4 14.6 Z M 85.4 14.6 " fill="none" stroke="#FEFFFE" stroke-width="9.00" transform="matrix(1.00, 0.00, 0.00, -1.00, 586.4, 432.5)"></path><path d="M 85.4 14.6 C 104.9 34.2 104.9 65.8 85.4 85.4 C 65.8 104.9 34.2 104.9 14.6 85.4 C -4.9 65.8 -4.9 34.2 14.6 14.6 C 34.2 -4.9 65.8 -4.9 85.4 14.6 Z M 85.4 14.6 " fill="none" stroke="#FEFFFE" stroke-width="9.00" transform="matrix(1.00, 0.00, 0.00, -1.00, 312.9, 243.5)"></path><path d="M 85.4 14.6 C 104.9 34.2 104.9 65.8 85.4 85.4 C 65.8 104.9 34.2 104.9 14.6 85.4 C -4.9 65.8 -4.9 34.2 14.6 14.6 C 34.2 -4.9 65.8 -4.9 85.4 14.6 Z M 85.4 14.6 " fill="none" stroke="#FEFFFE" stroke-width="9.00" transform="matrix(1.00, 0.00, 0.00, -1.00, 496.4, 242.5)"></path><path d="M 85.4 14.6 C 104.9 34.2 104.9 65.8 85.4 85.4 C 65.8 104.9 34.2 104.9 14.6 85.4 C -4.9 65.8 -4.9 34.2 14.6 14.6 C 34.2 -4.9 65.8 -4.9 85.4 14.6 Z M 85.4 14.6 " fill="none" stroke="#FEFFFE" stroke-width="9.00" transform="matrix(1.00, 0.00, 0.00, -1.00, 679.9, 243.5)"></path><path d="M 69.6 0.0 L 0.0 111.6 " fill="none" stroke="#FEFFFE" stroke-width="4.00" transform="matrix(1.00, 0.00, 0.00, -1.00, 394.7, 536.0)"></path><path d="M 0.0 0.0 L 76.1 113.0 " fill="none" stroke="#FEFFFE" stroke-width="4.00" transform="matrix(1.00, -0.06, -0.06, -1.00, 538.4, 538.8)"></path><path d="M 1.5 0.0 L 0.0 85.2 " fill="none" stroke="#FEFFFE" stroke-width="4.00" transform="matrix(1.00, 0.02, 0.02, -1.00, 359.0, 329.3)"></path><path d="M 44.7 0.0 L 0.0 98.3 " fill="none" stroke="#FEFFFE" stroke-width="4.00" transform="matrix(1.00, 0.00, 0.00, -1.00, 570.1, 334.5)"></path><path d="M 0.0 0.0 L 45.0 99.1 " fill="none" stroke="#FEFFFE" stroke-width="4.00" transform="matrix(1.00, 0.00, 0.00, -1.00, 661.3, 335.2)"></path></g></svg>