<?xml version="1.0" encoding="UTF-8" standalone="no"?><svg xmlns="http://www.w3.org/2000/svg" xmlns:xlink="http://www.w3.org/1999/xlink" clip-rule="evenodd" stroke-miterlimit="10" viewBox="0 0 1024 768"><desc>SVG generated by Keynote</desc><defs></defs><g transform="matrix(1.00, 0.00, -0.00, -1.00, 0.0, 768.0)"><path d="M 0.0 768.0 L 1024.0 768.0 L 1024.0 0.0 L 0.0 0.0 Z M 0.0 768.0 " fill="#212121"></path><g><clipPath id="clip0x7fa2653443e0"><path d="M 127.9 438.9 L 181.6 438.9 L 181.6 492.6 L 127.9 492.6 Z M 127.9 438.9 "></path></clipPath><g clip-path="url(#clip0x7fa2653443e0)"><path d="M 36.4 6.3 C 44.8 14.6 44.8 28.1 36.4 36.4 C 28.1 44.8 14.6 44.8 6.3 36.4 C -2.1 28.1 -2.1 14.6 6.3 6.3 C 14.6 -2.1 28.1 -2.1 36.4 6.3 Z M 36.4 6.3 " fill="none" stroke="#FEFFFE" stroke-width="9.00" transform="matrix(1.00, 0.00, 0.00, -1.00, 133.4, 487.1)"></path></g></g><g><clipPath id="clip0x7fa2653484b0"><path d="M 69.5 356.5 L 123.2 356.5 L 123.2 410.2 L 69.5 410.2 Z M 69.5 356.5 "></path></clipPath><g clip-path="url(#clip0x7fa2653484b0)"><path d="M 36.4 6.3 C 44.8 14.6 44.8 28.1 36.4 36.4 C 28.1 44.8 14.6 44.8 6.3 36.4 C -2.1 28.1 -2.1 14.6 6.3 6.3 C 14.6 -2.1 28.1 -2.1 36.4 6.3 Z M 36.4 6.3 " fill="none" stroke="#FEFFFE" stroke-width="9.00" transform="matrix(1.00, 0.00, 0.00, -1.00, 75.0, 404.7)"></path></g></g><g><clipPath id="clip0x7fa265349770"><path d="M 186.3 356.5 L 240.0 356.5 L 240.0 410.2 L 186.3 410.2 Z M 186.3 356.5 "></path></clipPath><g clip-path="url(#clip0x7fa265349770)"><path d="M 36.4 6.3 C 44.8 14.6 44.8 28.1 36.4 36.4 C 28.1 44.8 14.6 44.8 6.3 36.4 C -2.1 28.1 -2.1 14.6 6.3 6.3 C 14.6 -2.1 28.1 -2.1 36.4 6.3 Z M 36.4 6.3 " fill="none" stroke="#FEFFFE" stroke-width="9.00" transform="matrix(1.00, 0.00, 0.00, -1.00, 191.8, 404.7)"></path></g></g><g><clipPath id="clip0x7fa26534a950"><path d="M 69.5 275.8 L 123.2 275.8 L 123.2 329.5 L 69.5 329.5 Z M 69.5 275.8 "></path></clipPath><g clip-path="url(#clip0x7fa26534a950)"><path d="M 36.4 6.3 C 44.8 14.6 44.8 28.1 36.4 36.4 C 28.1 44.8 14.6 44.8 6.3 36.4 C -2.1 28.1 -2.1 14.6 6.3 6.3 C 14.6 -2.1 28.1 -2.1 36.4 6.3 Z M 36.4 6.3 " fill="none" stroke="#FEFFFE" stroke-width="9.00" transform="matrix(1.00, 0.00, 0.00, -1.00, 75.0, 324.0)"></path></g></g><g><clipPath id="clip0x7fa26534bae0"><path d="M 147.9 275.4 L 201.6 275.4 L 201.6 329.1 L 147.9 329.1 Z M 147.9 275.4 "></path></clipPath><g clip-path="url(#clip0x7fa26534bae0)"><path d="M 36.4 6.3 C 44.8 14.6 44.8 28.1 36.4 36.4 C 28.1 44.8 14.6 44.8 6.3 36.4 C -2.1 28.1 -2.1 14.6 6.3 6.3 C 14.6 -2.1 28.1 -2.1 36.4 6.3 Z M 36.4 6.3 " fill="none" stroke="#FEFFFE" stroke-width="9.00" transform="matrix(1.00, 0.00, 0.00, -1.00, 153.4, 323.6)"></path></g></g><g><clipPath id="clip0x7fa26534c840"><path d="M 226.2 275.8 L 279.9 275.8 L 279.9 329.5 L 226.2 329.5 Z M 226.2 275.8 "></path></clipPath><g clip-path="url(#clip0x7fa26534c840)"><path d="M 36.4 6.3 C 44.8 14.6 44.8 28.1 36.4 36.4 C 28.1 44.8 14.6 44.8 6.3 36.4 C -2.1 28.1 -2.1 14.6 6.3 6.3 C 14.6 -2.1 28.1 -2.1 36.4 6.3 Z M 36.4 6.3 " fill="none" stroke="#FEFFFE" stroke-width="9.00" transform="matrix(1.00, 0.00, 0.00, -1.00, 231.7, 324.0)"></path></g></g><g><clipPath id="clip0x7fa265350490"><path d="M 107.2 399.2 L 142.4 399.2 L 142.4 451.0 L 107.2 451.0 Z M 107.2 399.2 "></path></clipPath><g clip-path="url(#clip0x7fa265350490)"><path d="M 29.7 0.0 L 0.0 47.7 " fill="none" stroke="#FEFFFE" stroke-width="4.00" transform="matrix(1.00, 0.00, 0.00, -1.00, 109.9, 448.9)"></path></g></g><g><clipPath id="clip0x7fa2653514c0"><path d="M 168.8 452.4 L 206.5 450.2 L 203.6 397.8 L 165.8 400.0 Z M 168.8 452.4 "></path></clipPath><g clip-path="url(#clip0x7fa2653514c0)"><path d="M 0.0 0.0 L 32.5 48.2 " fill="none" stroke="#FEFFFE" stroke-width="4.00" transform="matrix(1.00, -0.06, -0.06, -1.00, 171.3, 450.1)"></path></g></g><g><clipPath id="clip0x7fa265352560"><path d="M 91.7 361.6 L 98.3 361.7 L 99.0 323.3 L 92.4 323.2 Z M 91.7 361.6 "></path></clipPath><g clip-path="url(#clip0x7fa265352560)"><path d="M 0.7 0.0 L 0.0 36.4 " fill="none" stroke="#FEFFFE" stroke-width="4.00" transform="matrix(1.00, 0.02, 0.02, -1.00, 94.7, 360.6)"></path></g></g><g><clipPath id="clip0x7fa265353510"><path d="M 182.0 319.1 L 206.7 319.1 L 206.7 364.7 L 182.0 364.7 Z M 182.0 319.1 "></path></clipPath><g clip-path="url(#clip0x7fa265353510)"><path d="M 19.1 0.0 L 0.0 42.0 " fill="none" stroke="#FEFFFE" stroke-width="4.00" transform="matrix(1.00, 0.00, 0.00, -1.00, 184.8, 362.9)"></path></g></g><g><clipPath id="clip0x7fa265354550"><path d="M 221.0 319.1 L 245.8 319.1 L 245.8 365.0 L 221.0 365.0 Z M 221.0 319.1 "></path></clipPath><g clip-path="url(#clip0x7fa265354550)"><path d="M 0.0 0.0 L 19.2 42.3 " fill="none" stroke="#FEFFFE" stroke-width="4.00" transform="matrix(1.00, 0.00, 0.00, -1.00, 223.8, 363.2)"></path></g></g><g><clipPath id="clip0x7fa265355550"><path d="M 476.2 438.9 L 529.9 438.9 L 529.9 492.6 L 476.2 492.6 Z M 476.2 438.9 "></path></clipPath><g clip-path="url(#clip0x7fa265355550)"><path d="M 36.4 6.3 C 44.8 14.6 44.8 28.1 36.4 36.4 C 28.1 44.8 14.6 44.8 6.3 36.4 C -2.1 28.1 -2.1 14.6 6.3 6.3 C 14.6 -2.1 28.1 -2.1 36.4 6.3 Z M 36.4 6.3 " fill="none" stroke="#FEFFFE" stroke-width="9.00" transform="matrix(1.00, 0.00, 0.00, -1.00, 481.7, 487.1)"></path></g></g><g><clipPath id="clip0x7fa265356740"><path d="M 417.8 356.5 L 471.5 356.5 L 471.5 410.2 L 417.8 410.2 Z M 417.8 356.5 "></path></clipPath><g clip-path="url(#clip0x7fa265356740)"><path d="M 36.4 6.3 C 44.8 14.6 44.8 28.1 36.4 36.4 C 28.1 44.8 14.6 44.8 6.3 36.4 C -2.1 28.1 -2.1 14.6 6.3 6.3 C 14.6 -2.1 28.1 -2.1 36.4 6.3 Z M 36.4 6.3 " fill="none" stroke="#FEFFFE" stroke-width="9.00" transform="matrix(1.00, 0.00, 0.00, -1.00, 423.3, 404.7)"></path></g></g><g><clipPath id="clip0x7fa2653579b0"><path d="M 534.6 356.5 L 588.3 356.5 L 588.3 410.2 L 534.6 410.2 Z M 534.6 356.5 "></path></clipPath><g clip-path="url(#clip0x7fa2653579b0)"><path d="M 36.4 6.3 C 44.8 14.6 44.8 28.1 36.4 36.4 C 28.1 44.8 14.6 44.8 6.3 36.4 C -2.1 28.1 -2.1 14.6 6.3 6.3 C 14.6 -2.1 28.1 -2.1 36.4 6.3 Z M 36.4 6.3 " fill="none" stroke="#60D9FB" stroke-width="9.00" transform="matrix(1.00, 0.00, 0.00, -1.00, 540.1, 404.7)"></path></g></g><g><clipPath id="clip0x7fa265358b80"><path d="M 417.8 275.8 L 471.5 275.8 L 471.5 329.5 L 417.8 329.5 Z M 417.8 275.8 "></path></clipPath><g clip-path="url(#clip0x7fa265358b80)"><path d="M 36.4 6.3 C 44.8 14.6 44.8 28.1 36.4 36.4 C 28.1 44.8 14.6 44.8 6.3 36.4 C -2.1 28.1 -2.1 14.6 6.3 6.3 C 14.6 -2.1 28.1 -2.1 36.4 6.3 Z M 36.4 6.3 " fill="none" stroke="#FEFFFE" stroke-width="9.00" transform="matrix(1.00, 0.00, 0.00, -1.00, 423.3, 324.0)"></path></g></g><g><clipPath id="clip0x7fa265359d50"><path d="M 496.1 275.4 L 549.8 275.4 L 549.8 329.1 L 496.1 329.1 Z M 496.1 275.4 "></path></clipPath><g clip-path="url(#clip0x7fa265359d50)"><path d="M 36.4 6.3 C 44.8 14.6 44.8 28.1 36.4 36.4 C 28.1 44.8 14.6 44.8 6.3 36.4 C -2.1 28.1 -2.1 14.6 6.3 6.3 C 14.6 -2.1 28.1 -2.1 36.4 6.3 Z M 36.4 6.3 " fill="none" stroke="#60D9FB" stroke-width="9.00" transform="matrix(1.00, 0.00, 0.00, -1.00, 501.6, 323.6)"></path></g></g><g><clipPath id="clip0x7fa26535af70"><path d="M 574.5 275.8 L 628.2 275.8 L 628.2 329.5 L 574.5 329.5 Z M 574.5 275.8 "></path></clipPath><g clip-path="url(#clip0x7fa26535af70)"><path d="M 36.4 6.3 C 44.8 14.6 44.8 28.1 36.4 36.4 C 28.1 44.8 14.6 44.8 6.3 36.4 C -2.1 28.1 -2.1 14.6 6.3 6.3 C 14.6 -2.1 28.1 -2.1 36.4 6.3 Z M 36.4 6.3 " fill="none" stroke="#60D9FB" stroke-width="9.00" transform="matrix(1.00, 0.00, 0.00, -1.00, 580.0, 324.0)"></path></g></g><g><clipPath id="clip0x7fa26535c140"><path d="M 455.5 399.2 L 490.6 399.2 L 490.6 451.0 L 455.5 451.0 Z M 455.5 399.2 "></path></clipPath><g clip-path="url(#clip0x7fa26535c140)"><path d="M 29.7 0.0 L 0.0 47.7 " fill="none" stroke="#FEFFFE" stroke-width="4.00" transform="matrix(1.00, 0.00, 0.00, -1.00, 458.2, 448.9)"></path></g></g><g><clipPath id="clip0x7fa26535d110"><path d="M 517.0 452.4 L 554.8 450.2 L 551.8 397.8 L 514.1 400.0 Z M 517.0 452.4 "></path></clipPath><g clip-path="url(#clip0x7fa26535d110)"><path d="M 0.0 0.0 L 32.5 48.2 " fill="none" stroke="#FEFFFE" stroke-width="4.00" transform="matrix(1.00, -0.06, -0.06, -1.00, 519.6, 450.1)"></path></g></g><g><clipPath id="clip0x7fa26535e150"><path d="M 439.9 361.6 L 446.6 361.7 L 447.3 323.3 L 440.6 323.2 Z M 439.9 361.6 "></path></clipPath><g clip-path="url(#clip0x7fa26535e150)"><path d="M 0.7 0.0 L 0.0 36.4 " fill="none" stroke="#FEFFFE" stroke-width="4.00" transform="matrix(1.00, 0.02, 0.02, -1.00, 443.0, 360.6)"></path></g></g><g><clipPath id="clip0x7fa26535f120"><path d="M 530.3 319.1 L 555.0 319.1 L 555.0 364.7 L 530.3 364.7 Z M 530.3 319.1 "></path></clipPath><g clip-path="url(#clip0x7fa26535f120)"><path d="M 19.1 0.0 L 0.0 42.0 " fill="none" stroke="#60D9FB" stroke-width="4.00" transform="matrix(1.00, 0.00, 0.00, -1.00, 533.1, 362.9)"></path></g></g><g><clipPath id="clip0x7fa2653601f0"><path d="M 569.2 319.1 L 594.1 319.1 L 594.1 365.0 L 569.2 365.0 Z M 569.2 319.1 "></path></clipPath><g clip-path="url(#clip0x7fa2653601f0)"><path d="M 0.0 0.0 L 19.2 42.3 " fill="none" stroke="#60D9FB" stroke-width="4.00" transform="matrix(1.00, 0.00, 0.00, -1.00, 572.0, 363.2)"></path></g></g><g><clipPath id="clip0x7fa2653611f0"><path d="M 804.5 356.5 L 858.2 356.5 L 858.2 410.2 L 804.5 410.2 Z M 804.5 356.5 "></path></clipPath><g clip-path="url(#clip0x7fa2653611f0)"><path d="M 36.4 6.3 C 44.8 14.6 44.8 28.1 36.4 36.4 C 28.1 44.8 14.6 44.8 6.3 36.4 C -2.1 28.1 -2.1 14.6 6.3 6.3 C 14.6 -2.1 28.1 -2.1 36.4 6.3 Z M 36.4 6.3 " fill="none" stroke="#60D9FB" stroke-width="9.00" transform="matrix(1.00, 0.00, 0.00, -1.00, 810.0, 404.7)"></path></g></g><g><clipPath id="clip0x7fa2653623e0"><path d="M 766.0 275.4 L 819.7 275.4 L 819.7 329.1 L 766.0 329.1 Z M 766.0 275.4 "></path></clipPath><g clip-path="url(#clip0x7fa2653623e0)"><path d="M 36.4 6.3 C 44.8 14.6 44.8 28.1 36.4 36.4 C 28.1 44.8 14.6 44.8 6.3 36.4 C -2.1 28.1 -2.1 14.6 6.3 6.3 C 14.6 -2.1 28.1 -2.1 36.4 6.3 Z M 36.4 6.3 " fill="none" stroke="#60D9FB" stroke-width="9.00" transform="matrix(1.00, 0.00, 0.00, -1.00, 771.5, 323.6)"></path></g></g><g><clipPath id="clip0x7fa2653635b0"><path d="M 844.4 275.8 L 898.1 275.8 L 898.1 329.5 L 844.4 329.5 Z M 844.4 275.8 "></path></clipPath><g clip-path="url(#clip0x7fa2653635b0)"><path d="M 36.4 6.3 C 44.8 14.6 44.8 28.1 36.4 36.4 C 28.1 44.8 14.6 44.8 6.3 36.4 C -2.1 28.1 -2.1 14.6 6.3 6.3 C 14.6 -2.1 28.1 -2.1 36.4 6.3 Z M 36.4 6.3 " fill="none" stroke="#60D9FB" stroke-width="9.00" transform="matrix(1.00, 0.00, 0.00, -1.00, 849.9, 324.0)"></path></g></g><g><clipPath id="clip0x7fa265364780"><path d="M 800.2 319.1 L 824.9 319.1 L 824.9 364.7 L 800.2 364.7 Z M 800.2 319.1 "></path></clipPath><g clip-path="url(#clip0x7fa265364780)"><path d="M 19.1 0.0 L 0.0 42.0 " fill="none" stroke="#60D9FB" stroke-width="4.00" transform="matrix(1.00, 0.00, 0.00, -1.00, 803.0, 362.9)"></path></g></g><g><clipPath id="clip0x7fa2653657e0"><path d="M 839.1 319.1 L 864.0 319.1 L 864.0 365.0 L 839.1 365.0 Z M 839.1 319.1 "></path></clipPath><g clip-path="url(#clip0x7fa2653657e0)"><path d="M 0.0 0.0 L 19.2 42.3 " fill="none" stroke="#60D9FB" stroke-width="4.00" transform="matrix(1.00, 0.00, 0.00, -1.00, 842.0, 363.2)"></path></g></g><text xml:space="preserve" font-family="HelveticaNeue-Light,Helvetica Neue" font-size="36.0" fill="#FEFFFF" transform="matrix(1.00, 0.00, -0.00, -1.00, 150.4, 171.1)">T</text><text xml:space="preserve" font-family="HelveticaNeue-Light,Helvetica Neue" font-size="36.0" fill="#FEFFFF" transform="matrix(1.00, 0.00, -0.00, -1.00, 165.7, 171.1)">-</text><text xml:space="preserve" font-family="HelveticaNeue-Light,Helvetica Neue" font-size="36.0" fill="#FEFFFF" transform="matrix(1.00, 0.00, -0.00, -1.00, 179.0, 171.1)">0</text><text xml:space="preserve" font-family="HelveticaNeue-Light,Helvetica Neue" font-size="36.0" fill="#FEFFFF" transform="matrix(1.00, 0.00, -0.00, -1.00, 487.6, 171.1)">T</text><text xml:space="preserve" font-family="HelveticaNeue-Light,Helvetica Neue" font-size="36.0" fill="#FEFFFF" transform="matrix(1.00, 0.00, -0.00, -1.00, 503.0, 171.1)">-</text><text xml:space="preserve" font-family="HelveticaNeue-Light,Helvetica Neue" font-size="36.0" fill="#FEFFFF" transform="matrix(1.00, 0.00, -0.00, -1.00, 516.3, 171.1)">1</text><text xml:space="preserve" font-family="HelveticaNeue-Light,Helvetica Neue" font-size="36.0" fill="#FEFFFF" transform="matrix(1.00, 0.00, -0.00, -1.00, 748.7, 171.1)">D</text><text xml:space="preserve" font-family="HelveticaNeue-Light,Helvetica Neue" font-size="36.0" fill="#FEFFFF" transform="matrix(1.00, 0.00, -0.00, -1.00, 773.3, 171.1)">i</text><text xml:space="preserve" font-family="HelveticaNeue-Light,Helvetica Neue" font-size="36.0" fill="#FEFFFF" transform="matrix(1.00, 0.00, -0.00, -1.00, 780.0, 171.1)">f</text><text xml:space="preserve" font-family="HelveticaNeue-Light,Helvetica Neue" font-size="36.0" fill="#FEFFFF" transform="matrix(1.00, 0.00, -0.00, -1.00, 788.7, 171.1)">f</text><text xml:space="preserve" font-family="HelveticaNeue-Light,Helvetica Neue" font-size="36.0" fill="#FEFFFF" transform="matrix(1.00, 0.00, -0.00, -1.00, 798.0, 171.1)"> </text><text xml:space="preserve" font-family="HelveticaNeue-Light,Helvetica Neue" font-size="36.0" fill="#FEFFFF" transform="matrix(1.00, 0.00, -0.00, -1.00, 808.0, 171.1)">T</text><text xml:space="preserve" font-family="HelveticaNeue-Light,Helvetica Neue" font-size="36.0" fill="#FEFFFF" transform="matrix(1.00, 0.00, -0.00, -1.00, 823.4, 171.1)">-</text><text xml:space="preserve" font-family="HelveticaNeue-Light,Helvetica Neue" font-size="36.0" fill="#FEFFFF" transform="matrix(1.00, 0.00, -0.00, -1.00, 836.7, 171.1)">0</text><text xml:space="preserve" font-family="HelveticaNeue-Light,Helvetica Neue" font-size="36.0" fill="#FEFFFF" transform="matrix(1.00, 0.00, -0.00, -1.00, 856.7, 171.1)"> </text><text xml:space="preserve" font-family="HelveticaNeue-Light,Helvetica Neue" font-size="36.0" fill="#FEFFFF" transform="matrix(1.00, 0.00, -0.00, -1.00, 866.7, 171.1)">T</text><text xml:space="preserve" font-family="HelveticaNeue-Light,Helvetica Neue" font-size="36.0" fill="#FEFFFF" transform="matrix(1.00, 0.00, -0.00, -1.00, 882.1, 171.1)">-</text><text xml:space="preserve" font-family="HelveticaNeue-Light,Helvetica Neue" font-size="36.0" fill="#FEFFFF" transform="matrix(1.00, 0.00, -0.00, -1.00, 895.4, 171.1)">1</text></g></svg>