<?xml version="1.0" encoding="UTF-8" standalone="no"?><svg xmlns="http://www.w3.org/2000/svg" xmlns:xlink="http://www.w3.org/1999/xlink" clip-rule="evenodd" stroke-miterlimit="10" viewBox="0 0 1024 768"><desc>SVG generated by Keynote</desc><defs></defs><g transform="matrix(1.00, 0.00, -0.00, -1.00, 0.0, 768.0)"><path d="M 0.0 768.0 L 1024.0 768.0 L 1024.0 0.0 L 0.0 0.0 Z M 0.0 768.0 " fill="#212121"></path><text xml:space="preserve" font-family="Raleway-ExtraLight,Raleway" font-size="80.0" fill="#FEFFFF" transform="matrix(1.00, 0.00, -0.00, -1.00, 183.9, 196.7)">L</text><text xml:space="preserve" font-family="Raleway-ExtraLight,Raleway" font-size="64.0" fill="#FEFFFF" transform="matrix(1.00, 0.00, -0.00, -1.00, 231.2, 196.7)">I</text><text xml:space="preserve" font-family="Raleway-ExtraLight,Raleway" font-size="64.0" fill="#FEFFFF" transform="matrix(1.00, 0.00, -0.00, -1.00, 245.9, 196.7)">T</text><text xml:space="preserve" font-family="Raleway-ExtraLight,Raleway" font-size="64.0" fill="#FEFFFF" transform="matrix(1.00, 0.00, -0.00, -1.00, 285.0, 196.7)">T</text><text xml:space="preserve" font-family="Raleway-ExtraLight,Raleway" font-size="64.0" fill="#FEFFFF" transform="matrix(1.00, 0.00, -0.00, -1.00, 324.1, 196.7)">L</text><text xml:space="preserve" font-family="Raleway-ExtraLight,Raleway" font-size="64.0" fill="#FEFFFF" transform="matrix(1.00, 0.00, -0.00, -1.00, 361.9, 196.7)">E</text><text xml:space="preserve" font-family="Raleway-ExtraLight,Raleway" font-size="80.0" fill="#FEFFFF" transform="matrix(1.00, 0.00, -0.00, -1.00, 401.4, 196.7)"> </text><text xml:space="preserve" font-family="Raleway-ExtraLight,Raleway" font-size="80.0" fill="#FEFFFF" transform="matrix(1.00, 0.00, -0.00, -1.00, 422.6, 196.7)">S</text><text xml:space="preserve" font-family="Raleway-ExtraLight,Raleway" font-size="64.0" fill="#FEFFFF" transform="matrix(1.00, 0.00, -0.00, -1.00, 471.5, 196.7)">H</text><text xml:space="preserve" font-family="Raleway-ExtraLight,Raleway" font-size="64.0" fill="#FEFFFF" transform="matrix(1.00, 0.00, -0.00, -1.00, 518.6, 196.7)">O</text><text xml:space="preserve" font-family="Raleway-ExtraLight,Raleway" font-size="64.0" fill="#FEFFFF" transform="matrix(1.00, 0.00, -0.00, -1.00, 567.5, 196.7)">O</text><text xml:space="preserve" font-family="Raleway-ExtraLight,Raleway" font-size="64.0" fill="#FEFFFF" transform="matrix(1.00, 0.00, -0.00, -1.00, 613.9, 196.7)">T</text><text xml:space="preserve" font-family="Raleway-ExtraLight,Raleway" font-size="64.0" fill="#FEFFFF" transform="matrix(1.00, 0.00, -0.00, -1.00, 653.0, 196.7)">E</text><text xml:space="preserve" font-family="Raleway-ExtraLight,Raleway" font-size="64.0" fill="#FEFFFF" transform="matrix(1.00, 0.00, -0.00, -1.00, 692.5, 196.7)">R</text><text xml:space="preserve" font-family="Raleway-ExtraLight,Raleway" font-size="80.0" fill="#FEFFFF" transform="matrix(1.00, 0.00, -0.00, -1.00, 734.2, 196.7)"> </text><text xml:space="preserve" font-family="Raleway-ExtraLight,Raleway" font-size="64.0" fill="#FEFFFF" transform="matrix(1.00, 0.00, -0.00, -1.00, 755.4, 196.7)">V</text><text xml:space="preserve" font-family="Raleway-ExtraLight,Raleway" font-size="80.0" fill="#FEFFFF" transform="matrix(1.00, 0.00, -0.00, -1.00, 798.9, 196.7)">2</text><image xlink:href="413AF9807652D632D385B344B03587EC.png" width="400.00" height="460.00" transform="matrix(1.00, 0.00, -0.00, -1.00, -2.0, 770.0)"></image></g></svg>