<?xml version="1.0" encoding="UTF-8" standalone="no"?><svg xmlns="http://www.w3.org/2000/svg" xmlns:xlink="http://www.w3.org/1999/xlink" clip-rule="evenodd" stroke-miterlimit="10" viewBox="0 0 1024 768"><desc>SVG generated by Keynote</desc><defs></defs><g transform="matrix(1.00, 0.00, -0.00, -1.00, 0.0, 768.0)"><path d="M 0.0 768.0 L 1024.0 768.0 L 1024.0 0.0 L 0.0 0.0 Z M 0.0 768.0 " fill="#212121"></path><g><clipPath id="clip0x7fa263969d80"><path d="M 28.0 501.0 L 282.0 501.0 L 282.0 267.0 L 28.0 267.0 Z M 27.8 500.8 "></path></clipPath><g clip-path="url(#clip0x7fa263969d80)"><image xlink:href="67C6A73FB62E84D406DB9BAAD7A124AA.png" width="400.00" height="400.00" transform="matrix(0.70, 0.00, -0.00, -0.70, 14.0, 525.0)"></image></g></g><image xlink:href="15AC7FE1A06E4C7D763A744622AD5F13.png" width="768.00" height="1024.00" transform="matrix(0.23, 0.00, -0.00, -0.23, 408.0, 501.0)"></image><text xml:space="preserve" font-family="HelveticaNeue-Light,Helvetica Neue" font-size="80.0" fill="#FEFFFF" transform="matrix(1.00, 0.00, -0.00, -1.00, 306.4, 354.2)">+</text><text xml:space="preserve" font-family="HelveticaNeue-Light,Helvetica Neue" font-size="80.0" fill="#FEFFFF" transform="matrix(1.00, 0.00, -0.00, -1.00, 615.7, 354.2)">=</text><g><clipPath id="clip0x7fa26396d220"><path d="M 696.0 489.0 L 930.0 489.0 L 930.0 255.0 L 696.0 255.0 Z M 696.0 488.7 "></path></clipPath><g clip-path="url(#clip0x7fa26396d220)"><image xlink:href="6F66748A2439A8F8C73BE7D5005D074C.png" width="400.00" height="400.00" transform="matrix(0.80, 0.00, -0.00, -0.80, 652.0, 532.0)"></image></g></g><text xml:space="preserve" font-family="HelveticaNeue-Light,Helvetica Neue" font-size="80.0" fill="#FEFFFF" transform="matrix(1.00, 0.00, -0.00, -1.00, 964.5, 354.2)">?</text></g></svg>